<?xml version="1.0" encoding="UTF-8"?>
<svg id="Layer_1" data-name="Layer 1" xmlns="http://www.w3.org/2000/svg" width="297mm" height="106mm" viewBox="0 0 841.89 300.472">
  <g>
    <path d="m137.394,44.933v26.028h-58.886v31.791h58.886v26.241h-58.886v61.447h-36.697V44.933h95.583Z" fill="#fff" stroke-width="0"/>
    <path d="m240.02,44.72l64.006,145.72h-37.55l-14.082-33.496h-62.512l-13.869,33.496h-37.55l63.366-145.72h38.19Zm-40.536,88.754h43.31l-21.762-52.911-21.548,52.911Z" fill="#fff" stroke-width="0"/>
    <path d="m381.476,44.933c30.936,0,49.498,13.655,49.498,35.204,0,14.507-8.321,26.454-20.91,31.575,21.762,6.829,31.577,20.696,31.577,37.977,0,32.217-26.243,40.751-58.887,40.751h-63.152V44.933h61.873Zm-25.176,60.379h15.576c15.574,0,24.108-5.334,24.108-19.202,0-12.802-7.039-18.562-22.615-18.562h-17.069v37.764Zm19.202,62.513c18.99,0,29.229-6.189,29.229-19.844,0-13.439-9.813-20.268-29.229-20.268h-19.202v40.111h19.202Z" fill="#fff" stroke-width="0"/>
    <path d="m477.486,44.933v135.265h71.473v10.242h-82.567V44.933h11.094Z" fill="#fff" stroke-width="0"/>
    <path d="m627.687,43.865l64.647,146.575h-11.734l-21.336-48.219h-70.62l-20.694,48.219h-11.736l63.581-146.575h7.892Zm-34.562,88.33h61.658l-31.149-71.047-30.509,71.047Z" fill="#fff" stroke-width="0"/>
    <path d="m742.9,44.933c24.536,0,45.019,11.734,45.019,36.696,0,16.641-9.389,28.591-25.817,33.07,23.683,2.56,37.977,16.855,37.977,37.551,0,24.536-20.481,38.19-48.216,38.19h-42.245V44.933h33.283Zm-22.188,66.565h17.496c25.602,0,37.975-10.881,37.975-28.588,0-19.202-12.16-27.951-36.269-27.951h-19.202v56.539Zm29.23,68.913c22.188,0,38.617-8.321,38.617-29.015,0-19.415-13.868-29.87-42.243-29.87h-25.604v58.884h29.23Z" fill="#fff" stroke-width="0"/>
  </g>
  <g>
    <path d="m48.083,212.378l12.035,30.085,12.098-30.085h5.953l12.163,30.085,11.905-30.085h6.209l-17.667,43.909h-1.344l-14.275-35.588-14.402,35.588h-1.344l-17.603-43.909h6.272Z" fill="#fff" stroke-width="0"/>
    <path d="m165.347,234.14c0,11.65-8.705,22.468-23.875,22.468-13.826,0-23.044-10.305-23.044-22.274,0-11.396,8.193-22.532,23.363-22.532,13.891,0,23.556,9.921,23.556,22.338Zm-40.454.194c0,9.663,7.746,16.387,16.708,16.387,9.281,0,17.282-5.505,17.282-16.644,0-7.424-5.697-16.387-16.899-16.387-10.817,0-17.091,7.363-17.091,16.644Z" fill="#fff" stroke-width="0"/>
    <path d="m193.894,212.378c8.705,0,13.25,5.76,13.25,12.16,0,5.057-2.497,8.835-7.298,10.756,2.56,1.664,3.777,2.688,8.001,9.088l7.681,11.65h-7.425l-6.913-10.754c-4.416-6.912-7.169-8.257-10.242-8.257h-2.816v19.011h-6.272v-43.654h12.034Zm-5.762,19.138h4.033c4.545,0,8.577-1.152,8.577-6.978,0-4.224-2.56-6.655-7.297-6.655h-5.313v13.633Z" fill="#fff" stroke-width="0"/>
    <path d="m235.5,212.378v19.971l18.37-19.971h7.81l-18.947,20.674,23.619,22.98h-8.578l-22.274-21.571v21.571h-6.337v-43.654h6.337Z" fill="#fff" stroke-width="0"/>
    <path d="m301.171,214.875v7.105c-2.945-2.881-6.337-4.545-10.242-4.545-3.969,0-6.402,2.048-6.402,5.055,0,2.433.512,4.545,7.169,8.387,9.217,5.312,11.202,8.384,11.202,14.338,0,6.4-5.057,11.393-12.673,11.393-4.289,0-8.322-1.473-11.778-4.033v-7.936c3.072,4.033,7.233,6.4,11.778,6.4,3.648,0,6.401-2.367,6.401-5.76,0-2.945-.833-4.93-9.473-9.984-6.465-3.778-8.898-7.235-8.898-12.611,0-6.209,5.377-10.881,12.866-10.881,3.585,0,7.042,1.088,10.05,3.072Z" fill="#fff" stroke-width="0"/>
    <path d="m325.62,212.378v18.883h24.516v-18.883h6.274v43.654h-6.274v-19.011h-24.516v19.011h-6.272v-43.654h6.272Z" fill="#fff" stroke-width="0"/>
    <path d="m419.839,234.14c0,11.65-8.705,22.468-23.874,22.468-13.826,0-23.045-10.305-23.045-22.274,0-11.396,8.195-22.532,23.363-22.532,13.89,0,23.556,9.921,23.556,22.338Zm-40.454.194c0,9.663,7.745,16.387,16.708,16.387,9.281,0,17.283-5.505,17.283-16.644,0-7.424-5.699-16.387-16.899-16.387-10.817,0-17.092,7.363-17.092,16.644Z" fill="#fff" stroke-width="0"/>
    <path d="m449.664,212.378c8.899,0,14.211,4.672,14.211,12.354,0,8.578-5.824,12.354-15.235,12.354h-6.015v18.947h-6.275v-43.654h13.314Zm-7.039,19.202h5.76c7.297,0,9.024-2.815,9.024-6.976,0-4.097-2.048-6.721-9.024-6.721h-5.76v13.696Z" fill="#fff" stroke-width="0"/>
  </g>
</svg>