<?xml version="1.0" encoding="UTF-8"?>
<svg id="Layer_1" data-name="Layer 1" xmlns="http://www.w3.org/2000/svg" width="256.953mm" height="256.854mm" viewBox="0 0 728.372 728.091">
  <g id="Logo">
    <g id="Inner">
      <path id="path5" d="m304.624,557.443v-59.35c2.13-.815,4.208-1.787,6.203-2.965,28.297-16.682,31.271-64.076,6.638-105.85-24.63-41.775-67.536-62.115-95.832-45.432-28.297,16.684-31.27,64.075-6.642,105.85,3.974,6.738,8.427,12.909,13.214,18.466v44.091l-60.988-34.902v-218.597l-21.377-14.111c-19.474,35.48-30.548,76.224-30.548,119.553,0,134.628,106.825,244.232,240.376,248.656l.023-25.649-51.067-29.76Z" fill="#fff" stroke-width="0"/>
      <path id="path7" d="m233.791,210.089l37.276,22.091c-.735,6.125-.758,12.868-.735,15.186.341,32.846,44.825,57.816,93.318,57.313,48.493-.502,83.031-29.88,82.786-58.783-.277-32.845-31.862-58.561-80.337-60.007-16.411-.49-32.23,2.787-39.433,4.163l-27.187-17.391,64.661-36.893,190.615,110.799,21.861-12c-21.031-34.58-50.816-64.506-88.367-86.126-116.672-67.173-264.96-29.282-335.427,84.25l21.683,13.692,59.287-36.296h0Z" fill="#fff" stroke-width="0"/>
      <path id="path9" d="m561.186,330.518l-40.535,21.188c-1.469-.246-10.467-8.667-12.491-9.798-28.696-15.987-70.942,5.151-94.544,47.515-23.602,42.362-21.59,90.799,7.104,106.789,28.697,15.986,71.426-3.194,95.032-45.556,3.807-6.834,8.89-22.699,11.267-29.636l34.533-19.963-.205,75.798-190.104,111.022.092,25.014c40.458-1.122,81.214-12.155,118.605-34.048,116.174-68.028,156.777-215.594,93.112-333.075l-21.866,12.007v72.744h0Z" fill="#fff" stroke-width="0"/>
    </g>
    <path id="GearRing" d="m712.242,335.348c-7.353-.5-14.701-1.085-22.054-1.572-3.13-.207-4.425-1.888-4.78-4.903-.837-7.09-1.467-14.24-2.922-21.212-2.567-12.309-5.555-24.536-8.669-36.721-.756-2.958-.299-4.633,2.344-5.979,5.807-2.956,11.523-6.093,17.35-9.009,9.158-4.582,7.438-4.74,4.723-11.499-4.97-12.376-10.367-24.58-15.549-36.872-1.075-2.55-2.595-3.08-5.324-2.3-7.572,2.163-15.235,4.013-22.881,5.912-4.507,1.119-4.542,1.066-6.853-3.134-9.45-17.172-20.378-33.346-32.852-48.461-1.719-2.083-1.91-3.663-.117-5.851,5.076-6.192,9.896-12.595,14.932-18.82,1.858-2.296,2.128-4.283-.064-6.448-10.48-10.35-20.954-20.705-31.393-31.095-1.787-1.779-3.373-1.721-5.329-.232-6.626,5.047-13.385,9.921-19.973,15.017-2.186,1.69-3.793,1.599-5.92-.108-4.998-4.01-9.968-8.12-15.336-11.59-11.467-7.414-23.16-14.48-34.811-21.606-1.933-1.182-2.568-2.347-1.94-4.686,2.155-8.03,3.912-16.168,6.104-24.187.845-3.091-.209-4.635-2.868-5.717-12.553-5.107-25.072-10.299-37.659-15.319-4.155-1.657-4.655-1.417-6.919,2.488-3.91,6.745-7.762,13.528-11.439,20.401-1.484,2.775-3.374,3.103-6.079,2.231-19.17-6.184-38.883-9.644-58.895-11.499-3.008-.279-4.312-1.585-4.648-4.535-.822-7.211-1.898-14.393-2.771-21.598-.644-5.314-1.263-6.432-6.704-6.509-13.241-.186-26.489-.036-39.731.181-4.752.078-5.347.908-5.777,5.758-.662,7.452-1.338,14.905-1.872,22.367-.193,2.696-1.29,3.999-4.058,4.317-6.458.74-12.953,1.391-19.317,2.661-12.633,2.52-25.209,5.337-37.763,8.231-4.935,1.138-4.97,1.346-7.724-2.98-4.302-6.759-8.662-13.483-12.872-20.298-1.161-1.879-2.472-2.563-4.498-1.726-13.511,5.582-27.012,11.185-40.531,16.747-1.942.799-2.457,2.074-2.022,4.071,1.816,8.337,3.356,16.74,5.424,25.012.763,3.054-.02,4.449-2.587,5.83-17.168,9.233-33.216,20.163-48.421,32.345-4.617,3.699-4.63,3.731-9.207-.076-5.582-4.643-11.158-9.296-16.673-14.019-2.202-1.886-4.11-1.839-6.151.209-9.952,9.981-19.912,19.956-29.928,29.872-2.414,2.389-2.174,4.401-.075,6.907,4.934,5.891,9.65,11.966,14.47,17.954,1.501,1.864,2.488,3.536.536,5.912-12.44,15.139-23.387,31.304-32.939,48.419-2.254,4.039-2.989,4.287-7.476,3.212-7.452-1.786-14.941-3.443-22.318-5.5-3.093-.863-4.669.109-5.778,2.757-5.317,12.698-10.653,25.388-15.95,38.094-2.097,5.029-1.49,5.177,3.189,7.934,6.351,3.743,12.714,7.464,19.051,11.23,2.115,1.257,3.826,2.682,2.882,5.655-6.056,19.084-10.034,38.595-11.78,58.549-.178,2.04-1.108,3.115-3.157,3.309-8.296.784-16.582,1.702-24.888,2.339-2.735.21-4.143,1.08-4.208,3.96-.279,12.384-.671,24.766-.931,37.151-.06,2.877.181,5.766.388,8.641.218,3.03,1.741,4.422,4.969,4.533,7.782.269,15.55.929,23.33,1.302,2.77.133,4.016,1.474,4.369,4.094,1.421,10.554,2.511,21.172,4.461,31.63,1.796,9.632,4.332,19.146,6.979,28.589.831,2.965.199,4.243-2.268,5.57-6.868,3.692-13.634,7.574-20.457,11.353-3.683,2.04-4.232,3.279-2.822,7.184,1.741,4.82,3.4,9.679,5.376,14.403,3.418,8.175,7.018,16.275,10.621,24.371.983,2.208,2.153,4.117,5.327,3.209,7.896-2.26,15.869-4.249,23.783-6.445,2.671-.741,4.417-.143,5.782,2.411,9.439,17.667,20.472,34.288,33.162,49.786,1.963,2.397,1.797,4.118-.221,6.357-5.221,5.792-10.226,11.777-15.353,17.653-1.846,2.116-2.038,4.161-.002,6.221,10.356,10.479,20.719,20.951,31.081,31.424,2.174,2.198,4.344,2.246,6.78.268,5.883-4.778,11.872-9.426,17.781-14.173,3.634-2.919,3.737-2.821,7.635.029,10.424,7.622,20.816,15.3,31.47,22.591,5.715,3.911,11.925,7.103,17.949,10.554,2.277,1.304,3.632,2.918,2.871,5.715-2.044,7.513-3.993,15.053-6.11,22.546-1.092,3.865-.748,5.284,2.97,6.856,12.873,5.441,25.784,10.792,38.722,16.075,3.387,1.383,4.739.75,6.493-2.526,2.972-5.553,5.92-11.12,8.815-16.713,4.505-8.703,2.402-7.871,12.458-5.004,13.555,3.865,27.208,7.182,41.266,8.654,4.86.509,9.677,1.424,14.531,2.01,2.753.333,3.862,1.799,3.967,4.451.287,7.262.71,14.519.979,21.781.184,4.96.704,5.777,5.744,6.05,6.187.336,12.393.507,18.588.469,8.651-.053,17.308-.204,25.946-.636,4.403-.22,4.992-1.193,5.386-5.561.664-7.344,1.46-14.679,1.984-22.033.223-3.134,1.713-4.681,4.661-5.063,4.112-.533,8.239-.962,12.342-1.556,6.739-.975,13.553-1.662,20.175-3.172,8.844-2.015,17.544-4.669,26.288-7.111,4.301-1.201,4.797-1.137,6.988,2.672,3.779,6.572,7.524,13.165,11.157,19.819,1.535,2.811,3.218,4.447,6.564,2.611,1.289-.707,2.84-.918,4.207-1.503,11.581-4.956,23.15-9.94,34.716-14.93,2.814-1.214,3.681-3.154,2.693-6.202-1.315-4.058-2.293-8.226-3.393-12.352-1.07-4.012-2.111-8.03-3.165-12.046-.274-2.775,1.775-3.813,3.634-4.83,17.486-9.571,33.779-20.887,49.12-33.585,2.098-1.737,3.722-1.903,5.829-.006,5.554,5,11.243,9.85,16.895,14.741,3.816,3.302,4.644,3.451,8.312-.19,9.929-9.854,19.756-19.814,29.494-29.857,3.442-3.55,3.308-4.2.071-8.082-4.926-5.908-9.852-11.818-14.891-17.628-1.646-1.897-1.634-3.406-.082-5.325,3.087-3.818,6.035-7.749,8.994-11.668,9.618-12.735,17.723-26.426,25.365-40.403,1.183-2.164,2.608-2.733,4.972-1.877,7.03,2.545,14.123,4.917,21.184,7.378,4.59,1.6,5.935,1.253,7.779-3.183,5.284-12.71,10.293-25.535,15.589-38.24,1.352-3.243.183-4.921-2.451-6.509-6.587-3.968-13.093-8.072-19.642-12.103-4.032-2.482-3.847-2.974-2.798-7.518,3.116-13.498,5.991-27.056,8.72-40.639,1.089-5.419,1.563-10.963,2.288-16.454.284-2.152,1.487-3.059,3.621-3.291,7.311-.796,14.596-1.827,21.913-2.561,5.468-.549,6.711-1.437,6.738-6.769.07-13.684.036-27.37-.133-41.052-.062-5.059-1.095-5.83-6.108-6.171Zm-77.467,63.951c-.701,15.5-4.432,30.701-9.116,45.615-5.953,18.955-13.943,37.01-24.365,53.81-7.229,11.651-15.518,22.752-24.286,33.307-8.37,10.077-17.466,19.688-27.173,28.476-9.769,8.846-20.462,16.731-31.147,24.491-17.28,12.549-36.183,22.351-56.116,29.831-13.029,4.889-26.58,8.457-40.025,12.147-17.285,4.744-34.991,6.5-52.904,6.341-4.09-.036-4.602.572-4.607,4.696-.026,18.39-.011,36.78-.02,55.17-.003,5.728-.139,5.857-5.995,5.869-3.527.007-7.055-.055-10.582,0-2.662.043-3.719-1.171-4-3.826-.852-8.042-1.954-16.056-2.938-24.084-.342-2.793-2.399-3.576-4.69-4.05-16.889-3.49-33.779-6.97-50.673-10.436-4.797-.984-9.602-1.926-14.409-2.862-2.492-.485-4.269.282-5.508,2.688-3.319,6.45-6.804,12.816-10.226,19.214-1.833,3.428-2.553,3.713-6.067,2.328-9.627-3.793-19.255-7.586-28.872-11.405-3.786-1.503-4.072-2.192-2.903-6.021,2.273-7.444,4.485-14.906,6.796-22.337.744-2.393-.587-3.596-2.299-4.689-9.262-5.914-18.547-11.792-27.784-17.745-9.153-5.899-18.305-11.803-27.351-17.863-2.311-1.548-3.889-1.628-6.217.139-6.114,4.642-12.521,8.896-18.766,13.368-1.585,1.135-2.892,1.078-4.265-.258-7.886-7.676-15.836-15.289-23.591-23.095-.642-.646-.521-2.938.123-3.834,4.61-6.413,9.361-12.731,14.261-18.926,1.733-2.191,1.929-3.925.385-6.298-10.655-16.378-21.214-32.817-31.787-49.248-1.616-2.511-3.16-5.068-4.71-7.621-1.265-2.084-3.064-2.985-5.429-2.321-7.28,2.044-14.562,4.081-21.8,6.265-3.744,1.13-4.511.847-6.024-2.866-3.662-8.992-7.276-18.007-11.116-26.924-1.111-2.579-.404-3.935,1.768-5.243,5.487-3.303,10.89-6.744,16.361-10.075,4.641-2.826,5.19-4.464,4.014-9.805-1.604-7.286-2.927-14.634-4.367-21.955-1.68-8.543-3.359-17.086-5.035-25.63-1.026-5.228-2.166-10.437-3.025-15.692-.541-3.31-2.342-4.447-5.505-4.422-6.519.051-13.039-.061-19.559-.122-4.196-.039-4.777-.572-4.795-4.871-.042-10.371-.04-20.742-.008-31.113.013-4.188.412-4.701,4.435-5.004,7.021-.529,14.054-.912,21.083-1.334,4.781-.287,5.208-.942,5.891-5.687,1.014-7.046,2.41-14.037,3.607-21.058.536-3.142.958-6.302,1.479-9.447,1.932-11.661,3.849-23.325,5.859-34.973.416-2.413-.532-3.807-2.514-4.955-6.925-4.012-13.759-8.182-20.728-12.114-2.065-1.165-2.319-2.324-1.465-4.387,4.08-9.856,8.058-19.754,12.047-29.647.884-2.192,1.969-3.113,4.632-2.252,8.219,2.657,16.569,4.908,24.816,7.483,2.268.708,3.606.169,4.81-1.761,8.193-13.133,16.443-26.23,24.66-39.348,3.628-5.791,7.131-11.663,10.873-17.379,1.647-2.517,1.676-4.664-.121-7.024-3.944-5.181-7.742-10.475-11.753-15.602-3.087-3.946-3.108-3.784.493-7.483,6.631-6.813,13.182-13.704,19.709-20.617,2.727-2.889,3.047-2.913,6.34-.549,6.24,4.479,12.581,8.818,18.814,13.306,2.036,1.466,3.756,1.426,5.83.024,16-10.817,32.05-21.562,48.085-32.328,1.951-1.31,3.791-2.852,5.887-3.86,3.349-1.611,3.609-4.136,2.743-7.207-1.824-6.469-3.561-12.965-5.518-19.393-1.583-5.199-1.498-6.002,3.424-8.139,9.103-3.952,18.33-7.614,27.438-11.554,2.587-1.119,4.022-.293,5.206,1.91,3.437,6.396,7.006,12.724,10.301,19.191,1.396,2.739,2.984,3.5,6.105,2.927,10.058-1.845,20.199-3.236,30.291-4.905,9.653-1.596,19.284-3.323,28.925-4.989,2.512-.434,5.127-.571,7.499-1.403,1.264-.443,2.254-1.983,3.091-3.216.502-.739.584-1.83.662-2.779.56-6.796,1.134-13.593,1.572-20.397.25-3.876.723-4.524,4.496-4.584,3.526-.056,7.055-.049,10.582-.007,4.028.047,4.541.567,4.553,4.756.028,9.302.009,18.604.009,27.906h.014c0,9.302-.027,18.604.012,27.906.018,4.345.694,4.652,5.079,5.084,11.013,1.086,22.085,1.949,32.975,3.826,13.125,2.262,26.244,4.904,39.07,8.449,12.295,3.398,24.325,7.868,36.27,12.398,15.528,5.889,30.036,13.895,43.812,23.135,17.434,11.693,33.605,24.873,47.412,40.843,10.789,12.479,20.442,25.726,28.821,39.93,8.548,14.49,15.8,29.664,21.016,45.581,5.003,15.265,8.926,30.942,12.339,46.652,2.36,10.863,2.961,22.103,4.5,33.153,2.447,17.567,1.672,35.249.878,52.803Z" fill="#fff" stroke-width="0"/>
  </g>
</svg>