<?xml version="1.0" encoding="UTF-8"?>
<svg xmlns="http://www.w3.org/2000/svg" width="100mm" height="50mm" viewBox="0 0 283.465 141.732">
  <g id="Layer_1" data-name="Layer 1">
    <rect y="0" width="283.465" height="141.732"/>
  </g>
  <g id="Shirt_Arm1">
    <g id="WorkshopLogoTextAlt-2" data-name="WorkshopLogoTextAlt">
      <g>
        <path d="m50.29,46.473v8.458h-19.133v10.329h19.133v8.526h-19.133v19.964h-11.923v-47.277h31.056Z" fill="#fff"/>
        <path d="m83.636,46.403l20.796,47.346h-12.2l-4.575-10.883h-20.312l-4.506,10.883h-12.2l20.588-47.346h12.409Zm-13.171,28.837h14.071l-7.07-17.191-7.001,17.191Z" fill="#fff"/>
        <path d="m129.598,46.473c10.052,0,16.083,4.437,16.083,11.438,0,4.714-2.704,8.596-6.794,10.26,7.071,2.218,10.26,6.724,10.26,12.339,0,10.467-8.526,13.24-19.133,13.24h-20.519v-47.277h20.103Zm-8.18,19.618h5.061c5.061,0,7.833-1.733,7.833-6.239,0-4.159-2.287-6.031-7.348-6.031h-5.546v12.27Zm6.239,20.311c6.169,0,9.497-2.01,9.497-6.447,0-4.367-3.189-6.585-9.497-6.585h-6.239v13.032h6.239Z" fill="#fff"/>
        <path d="m160.796,46.473v43.95h23.223v3.327h-26.827v-47.277h3.604Z" fill="#fff"/>
        <path d="m209.6,46.126l21.004,47.624h-3.812l-6.933-15.667h-22.944l-6.725,15.667h-3.812l20.657-47.624h2.565Zm-11.23,28.699h20.034l-10.121-23.084-9.913,23.084Z" fill="#fff"/>
        <path d="m247.036,46.473c7.973,0,14.627,3.813,14.627,11.923,0,5.407-3.05,9.289-8.388,10.745,7.694.832,12.339,5.477,12.339,12.201,0,7.972-6.654,12.408-15.666,12.408h-13.726v-47.277h10.813Zm-7.209,21.628h5.685c8.318,0,12.339-3.536,12.339-9.289,0-6.239-3.951-9.081-11.784-9.081h-6.239v18.37Zm9.497,22.39c7.209,0,12.547-2.703,12.547-9.427,0-6.308-4.506-9.705-13.726-9.705h-8.318v19.132h9.497Z" fill="#fff"/>
      </g>
    </g>
  </g>
</svg>