<?xml version="1.0" encoding="UTF-8"?>
<svg xmlns="http://www.w3.org/2000/svg" width="150mm" height="150mm" viewBox="0 0 425.197 425.197">
  <g id="Layer_1" data-name="Layer 1">
    <rect width="425.197" height="425.197"/>
  </g>
  <g id="Shirt_Front">
    <g id="Gear">
      <g id="GearOrig">
        <g id="Top">
          <path d="m274.588,298.407c-10.928-11.464-19.452-24.102-25.349-37.582-.446-1.021-1.448-1.685-2.562-1.699-3.859-.047-7.812-.349-11.748-.896-.133-.019-.264-.027-.394-.027-1.363,0-2.561.984-2.793,2.366-2.086,12.439-6.94,23.667-14.436,33.4-5.02-1.388-10.041-3.038-14.968-4.919-3.28-13.508-3.594-26.679-.929-39.17.265-1.239-.326-2.504-1.446-3.097-3.688-1.952-7.304-4.132-10.744-6.48-.483-.33-1.041-.493-1.598-.493-.642,0-1.28.217-1.802.646-9.888,8.143-21.762,13.97-35.312,17.333-3.954-3.474-7.746-7.136-11.303-10.919,5.19-11.118,12.933-20.599,23.033-28.2,1.231-.926,1.497-2.666.6-3.917-2.311-3.221-4.41-6.569-6.239-9.952-.497-.919-1.457-1.486-2.492-1.486-.067,0-.134.002-.201.007-2.775.196-5.619.296-8.45.296-12.093,0-24.448-1.768-36.745-5.256-1.535-4.212-2.826-8.477-3.852-12.721,11.903-5.482,25.239-8.528,39.678-9.058.764-.028,1.483-.363,1.997-.93.513-.566.775-1.316.728-2.079-.214-3.423-.15-6.836.189-10.144.125-1.222-.551-2.386-1.675-2.882-14.699-6.495-28.169-15.153-40.062-25.75,1.104-3.612,2.45-7.146,4.016-10.549,15.109,1.876,30.068,6.306,44.492,13.179.392.186.808.276,1.219.276.876,0,1.73-.407,2.279-1.148,1.9-2.568,4.062-4.997,6.427-7.219,1.096-1.03,1.196-2.737.229-3.888-9.868-11.75-17.295-24.421-22.099-37.692,3.376-2.106,6.941-4.029,10.64-5.74,13.52,8.892,25.265,19.598,34.926,31.843.546.692,1.371,1.079,2.226,1.079.247,0,.496-.032.741-.099,3.462-.938,7.09-1.643,10.783-2.094.766-.094,1.459-.495,1.923-1.111.463-.616.654-1.395.531-2.155-2.136-13.205-1.419-25.878,2.13-37.706,4.843.133,9.768.522,14.684,1.159,7.403,13.054,11.992,26.536,13.645,40.093.14,1.152.968,2.102,2.09,2.398,3.937,1.039,7.885,2.332,11.737,3.841.338.132.688.196,1.033.196.988,0,1.937-.518,2.456-1.418,6.192-10.73,14.868-19.638,25.803-26.497,4.715,2.551,9.346,5.344,13.805,8.325-1.041,12.819-4.948,24.594-11.627,35.023-.76,1.188-.532,2.753.536,3.674,3.125,2.697,6.104,5.583,8.854,8.578.547.596,1.31.917,2.089.917.334,0,.671-.06.996-.182,11.649-4.378,24.445-6.598,38.03-6.598,1.318,0,2.654.021,3.988.064,2.84,4.036,5.463,8.194,7.822,12.401-8.885,8.611-19.832,15.115-32.574,19.347-.732.243-1.334.774-1.665,1.471-.332.696-.366,1.498-.094,2.22,1.309,3.466,2.361,6.993,3.13,10.482.245,1.112,1.132,1.969,2.251,2.177,15.372,2.854,30.341,8.258,44.514,16.069.19,4.048.13,8.08-.18,12.029-5.12.694-10.402,1.045-15.733,1.045h-.002c-9.208,0-18.652-1.038-28.071-3.084-.202-.044-.404-.065-.604-.065-1.242,0-2.374.821-2.726,2.062-.882,3.114-2.041,6.147-3.446,9.014-.6,1.225-.242,2.704.852,3.519,12.792,9.542,23.658,20.683,32.325,33.142-2.304,2.958-4.828,5.784-7.534,8.434-14.947-5.588-28.898-13.467-41.491-23.433-.513-.406-1.135-.612-1.759-.612-.541,0-1.083.154-1.557.466-2.788,1.833-5.798,3.471-8.945,4.869-.7.311-1.244.892-1.51,1.61-.265.719-.228,1.514.104,2.205,6.214,12.98,9.68,26.154,10.316,39.194-4.259,1.063-8.66,1.901-13.13,2.499Zm-66.007-56.658c-.267,1.4.548,2.781,1.902,3.224l14.451,4.729c.288.094.585.141.882.141.501,0,1-.133,1.44-.393.702-.415,1.191-1.111,1.344-1.911l.621-3.258c4.745.896,9.471,1.349,14.085,1.349,30.014,0,51.938-18.664,53.317-45.387,1.641-31.802-26.765-64.4-63.32-72.667-5.707-1.291-11.411-1.945-16.956-1.945-30.015,0-51.939,18.664-53.318,45.387-1.359,26.364,17.579,53.562,46.291,66.845l-.739,3.887Z" fill="#fff"/>
        </g>
        <g>
          <path d="m334.441,276.154c-.329.31-.76.474-1.197.474-.199,0-.4-.034-.593-.104-15.647-5.646-30.255-13.711-43.443-23.983-2.202,1.386-4.52,2.659-6.92,3.8,6.365,13.796,9.758,27.814,10.091,41.696.019.804-.513,1.517-1.29,1.728-5.576,1.511-11.411,2.645-17.344,3.369-.071.009-.141.013-.212.013-.469,0-.922-.189-1.253-.53-11.501-11.839-20.508-24.931-26.783-38.93-3.143-.076-6.338-.311-9.532-.701-2.478,13.181-7.935,25.052-16.235,35.306-.336.416-.838.648-1.358.648-.149,0-.298-.019-.446-.058-6.245-1.649-12.509-3.699-18.618-6.093-.522-.205-.914-.647-1.054-1.191-3.667-14.231-4.201-28.147-1.59-41.386-3.054-1.661-6.054-3.47-8.947-5.396-10.574,8.44-23.206,14.417-37.571,17.773-.132.031-.265.046-.398.046-.415,0-.821-.148-1.141-.425-4.958-4.279-9.684-8.857-14.048-13.608-.468-.51-.591-1.248-.314-1.882,5.28-12.073,13.315-22.387,23.895-30.68-1.823-2.633-3.509-5.339-5.031-8.074-2.525.155-5.095.233-7.655.233-12.977,0-26.232-1.963-39.398-5.835-.525-.154-.948-.547-1.141-1.059-2.104-5.573-3.799-11.249-5.037-16.87-.173-.786.213-1.59.937-1.944,12.508-6.137,26.559-9.636,41.785-10.409-.096-2.645-.037-5.277.175-7.857-15.246-6.879-29.191-16.035-41.462-27.226-.489-.446-.684-1.13-.504-1.767.372-1.313.775-2.618,1.207-3.912l-18.403,30.93c-2.271,4.636-4.126,9.485-5.549,14.511,5.912,5.392,12.292,10.354,19.048,14.816l-19.953,33.535c1.225,5.559,2.884,11.116,4.965,16.629,15.955,4.692,32.141,6.551,47.556,5.461.869,1.607,1.792,3.198,2.767,4.772l-16.677,28.029c-1.622,2.727-3.074,5.553-4.349,8.469,4.332,4.717,8.978,9.218,13.903,13.468,14.478-3.383,27.369-9.592,37.873-18.243,3.542,2.417,7.224,4.638,11.016,6.644-2.833,13.278-2.388,27.53,1.309,41.875,6.064,2.377,12.221,4.393,18.426,6.031,2.316-2.862,4.417-5.876,6.293-9.028l15.76-26.487c2.085.163,4.159.257,6.218.283,6.171,14.109,15.323,27.532,26.89,39.439,5.871-.717,11.585-1.827,17.099-3.321l19.938-33.51c7.304,4.052,14.9,7.508,22.673,10.313,3.813-3.584,7.27-7.467,10.344-11.619l18.911-31.783c-1.176,1.239-2.385,2.45-3.632,3.622Z" fill="#fff"/>
          <path d="m341.766,223.17h-.002c-9.016,0-18.246-.96-27.458-2.854-.741,2.364-1.629,4.677-2.653,6.907,10.66,8.099,19.996,17.3,27.861,27.437,1.656-2.784,17.493-29.4,19.457-32.702-5.591.801-11.37,1.212-17.205,1.212Z" fill="#fff"/>
          <path d="m154.906,132.684c1.512-1.938,3.159-3.795,4.919-5.544-9.888-12.041-17.318-25.017-22.129-38.609l-19.292,32.424c12.383,2.271,24.617,6.194,36.501,11.728Z" fill="#fff"/>
          <path d="m312.689,176.86c.971,2.751,1.789,5.53,2.442,8.294,3.569.692,7.114,1.524,10.634,2.48,1.414-2.376,12.195-20.496,16.594-27.889-8.398,7.387-18.343,13.133-29.67,17.115Z" fill="#fff"/>
          <path d="m184.133,102.469c2.287,2.481,4.488,5.03,6.592,7.652,2.767-.706,5.625-1.272,8.527-1.689-1.681-11.691-1.21-22.99,1.385-33.701-4.572,7.683-15.098,25.375-16.504,27.738Z" fill="#fff"/>
        </g>
        <path d="m270.939,234.221c-2.65-30.788-32.181-59.806-67.214-65.436-3.942-.634-7.897-.955-11.757-.955-8.752,0-17.147,1.672-24.46,4.853.01-.479.026-.958.051-1.434,1.248-24.189,21.311-41.084,48.789-41.084,5.208,0,10.576.617,15.956,1.833,34.501,7.803,61.322,38.312,59.791,68.011-.755,14.617-8.421,26.951-21.156,34.212Z" fill="#fff"/>
      </g>
    </g>
  </g>
</svg>