<?xml version="1.0" encoding="UTF-8"?>
<svg xmlns="http://www.w3.org/2000/svg" width="525mm" height="480.798mm" viewBox="0 0 1488.189 1362.892">
  <g id="Layer_1" data-name="Layer 1">
    <rect width="1488.189" height="1362.892"/>
  </g>
  <g id="Shirt_Back">
    <g id="Logo1">
      <g>
        <path d="m1097.169,972.257c1.364-13.282,1.618-26.839.76-40.568-36.896-20.805-76.668-35.391-116.853-42.852-2.002-9.087-4.715-18.172-8.117-27.184,34.533-11.468,64.479-29.792,87.983-53.836-7.239-13.387-15.453-26.49-24.581-39.209-39.647-1.706-77.528,3.961-111.294,16.652-2.644-2.879-5.382-5.69-8.166-8.468-3.396,13.329-10.065,24.587-13.47,29.741-.345.526-.74,1.044-1.166,1.53-3.137,3.546-4.639,8.263-4.127,12.953.027.245.048.504.065.766.056.944-.003,1.867-.118,2.779,22.377,29.432,35.023,63.825,33.267,97.876-3.937,76.34-78.726,122.032-167.045,102.057l-2.898,15.221-36.126-11.824,2.898-15.221c-71.636-30.961-119.974-98.321-116.66-162.569,2.377-46.08,30.574-80.985,71.974-97.03-1.963-25.075-12.86-46.094-25.517-67.34-22.511-25.197-48.935-47.712-78.209-66.558-12.616,5.603-24.563,12.107-35.752,19.463,12.128,35.706,31.992,70.331,58.363,101.732-6.234,5.858-11.884,12.206-16.909,18.993-38.145-18.175-78.48-29.807-118.505-34.176-5.679,11.59-10.314,23.713-13.871,36.277,30.915,28.194,66.772,51.536,105.35,68.579-.892,8.685-1.058,17.549-.497,26.527-38.924,1.429-75.382,10.2-107.118,25.772,3.062,13.897,7.21,27.79,12.413,41.573,39.887,11.731,80.353,16.378,118.89,13.653,4.733,8.754,10.105,17.322,16.073,25.638-27.344,20.578-48.352,46.969-61.721,77.538,10.83,11.792,22.445,23.044,34.757,33.669,36.196-8.457,68.422-23.98,94.682-45.608,8.856,6.043,18.059,11.594,27.54,16.61-7.083,33.195-5.97,68.826,3.272,104.686,15.159,5.943,30.554,10.982,46.065,15.076,21.012-25.959,34.767-56.724,40.414-90.389,10.166,1.414,20.28,2.186,30.263,2.308,15.427,35.272,38.308,68.83,67.225,98.597,14.676-1.793,28.962-4.568,42.748-8.303-.843-35.22-9.926-71.459-26.685-106.472,8.249-3.664,16.062-7.917,23.378-12.727,33.039,26.15,70.423,46.982,109.836,61.205,9.533-8.959,18.175-18.666,25.859-29.047-22.43-33.299-51.467-63.506-85.312-88.751,3.713-7.579,6.744-15.506,9.07-23.721,40.161,8.727,80.179,10.217,117.574,4.38Z" fill="#fff"/>
        <g>
          <path d="m984.697,885.079c8.922,1.729,17.785,3.81,26.586,6.2,3.534-5.94,30.487-51.239,41.484-69.722-20.995,18.467-45.857,32.831-74.176,42.786,2.429,6.877,4.473,13.825,6.106,20.736Z" fill="#fff"/>
          <path d="m596.431,740.043c-24.719-30.103-43.295-62.542-55.321-96.522l-48.231,81.061c30.958,5.677,61.543,15.485,91.253,29.321,3.779-4.846,7.898-9.489,12.299-13.861Z" fill="#fff"/>
          <path d="m1032.97,1112.578c-.823.775-1.899,1.186-2.991,1.186-.498,0-.999-.086-1.482-.26-39.118-14.114-75.639-34.279-108.607-59.957-5.504,3.465-11.299,6.646-17.3,9.499,15.912,34.489,24.396,69.536,25.226,104.24.048,2.01-1.284,3.793-3.225,4.32-13.94,3.777-28.528,6.612-43.361,8.422-.178.023-.354.033-.53.033-1.174,0-2.305-.472-3.133-1.324-28.753-29.598-51.27-62.328-66.956-97.326-7.858-.19-15.846-.778-23.83-1.751-6.195,32.953-19.838,62.629-40.588,88.265-.841,1.04-2.096,1.621-3.395,1.621-.372,0-.745-.048-1.115-.144-15.612-4.121-31.272-9.246-46.544-15.234-1.305-.512-2.286-1.618-2.635-2.976-9.167-35.577-10.502-70.368-3.975-103.465-7.635-4.151-15.134-8.675-22.367-13.491-26.434,21.099-58.016,36.042-93.928,44.432-.33.077-.663.114-.994.114-1.037,0-2.052-.37-2.854-1.062-12.394-10.697-24.21-22.143-35.12-34.02-1.17-1.274-1.478-3.121-.785-4.705,13.2-30.183,33.286-55.968,59.738-76.699-4.556-6.582-8.772-13.348-12.578-20.186-6.314.387-12.738.583-19.137.583-32.443,0-65.581-4.908-98.494-14.588-1.314-.386-2.37-1.366-2.854-2.648-5.26-13.933-9.497-28.123-12.593-42.175-.433-1.966.533-3.974,2.341-4.861,31.27-15.343,66.397-24.09,104.463-26.022-.24-6.612-.093-13.192.439-19.642-38.116-17.197-72.978-40.087-103.656-68.065-1.223-1.115-1.71-2.824-1.259-4.416.93-3.284,1.938-6.545,3.017-9.781l-46.008,77.325c-5.678,11.59-10.314,23.713-13.871,36.277,14.78,13.479,30.73,25.886,47.619,37.04l-49.883,83.838c3.062,13.897,7.21,27.79,12.413,41.573,39.887,11.731,80.353,16.378,118.89,13.653,2.172,4.017,4.479,7.996,6.918,11.931l-41.693,70.072c-4.056,6.817-7.685,13.883-10.873,21.173,10.83,11.792,22.445,23.044,34.757,33.669,36.196-8.457,68.422-23.98,94.682-45.608,8.856,6.043,18.059,11.594,27.54,16.61-7.083,33.195-5.97,68.826,3.272,104.686,15.16,5.943,30.554,10.982,46.065,15.076,5.791-7.155,11.043-14.69,15.731-22.569l39.4-66.219c5.211.408,10.397.644,15.546.707,15.427,35.272,38.308,68.83,67.225,98.597,14.676-1.793,28.962-4.567,42.748-8.303l49.846-83.775c18.259,10.131,37.25,18.769,56.682,25.781,9.533-8.959,18.175-18.666,25.859-29.047l47.277-79.458c-2.94,3.098-5.962,6.126-9.079,9.055Z" fill="#fff"/>
          <path d="m1051.282,980.119h-.006c-22.541-.002-45.615-2.4-68.646-7.135-1.852,5.909-4.073,11.692-6.633,17.268,26.65,20.248,49.99,43.25,69.653,68.593,4.14-6.959,43.732-73.5,48.643-81.755-13.978,2.002-28.424,3.029-43.012,3.029Z" fill="#fff"/>
        </g>
        <g>
          <path d="m707.799,844.317c-.19-1.89-.696-3.758-1.533-5.524-.816-1.718-1.287-3.563-1.402-5.483-.126-2.1.181-4.152.912-6.1,2.401-6.397.718-13.537-4.286-18.189-.791-.736-1.497-1.572-2.101-2.486-4.68-7.089-15.57-25.706-15.57-45.408,0-1.165-.024-2.319-.063-3.466-39.595,15.886-65.655,49.648-67.873,92.665-.058,1.126-.1,2.261-.125,3.398,18.257-7.913,39.202-12.07,61.031-12.07,9.653,0,19.548.804,29.41,2.389.535.086,1.067.184,1.6.275Z" fill="#fff"/>
          <path d="m896.8,843.411c.816,1.723,1.288,3.569,1.404,5.49.149,2.533-.322,4.968-1.401,7.239-2.17,4.573-2.171,9.818-.002,14.39.816,1.718,1.287,3.567,1.402,5.491.149,2.534-.324,4.97-1.402,7.242-2.17,4.571-2.171,9.817-.002,14.39.817,1.724,1.288,3.571,1.404,5.49.227,3.854-1.032,7.602-3.548,10.557-3.75,4.409-4.961,10.342-3.24,15.87.244.78.367,1.6.367,2.437v2.059c0,2.143-.77,4.093-2.227,5.639-6.316,6.721-15.029,15.195-26.181,24.374,5.868,14.073,9.646,28.692,10.939,43.477,31.707-18.144,50.794-48.903,52.674-85.345,1.652-32.019-9.899-64.412-30.484-92.463-1.843,4.396-1.761,9.328.295,13.663Z" fill="#fff"/>
        </g>
        <path id="Bulb" d="m719.771,924.361c-5.553,0-10.213-4.33-10.548-9.947-.348-5.831,4.097-10.839,9.929-11.188l163.503-9.754c5.807-.357,10.839,4.096,11.188,9.929.347,5.831-4.097,10.839-9.929,11.188l-163.503,9.754c-.214.013-.428.019-.64.019Zm0-27.121c-5.553,0-10.213-4.33-10.548-9.947-.348-5.831,4.097-10.839,9.929-11.188l163.503-9.754c5.807-.367,10.839,4.096,11.188,9.929.347,5.831-4.097,10.839-9.929,11.188l-163.503,9.754c-.214.013-.428.019-.64.019Zm0-27.121c-5.553,0-10.213-4.33-10.548-9.947-.348-5.831,4.097-10.839,9.929-11.188l163.503-9.754c5.807-.357,10.839,4.096,11.188,9.929.347,5.831-4.097,10.839-9.929,11.188l-163.503,9.754c-.214.013-.428.019-.64.019Zm0-27.123c-5.554,0-10.213-4.33-10.549-9.947-.348-5.831,4.098-10.839,9.929-11.188l163.503-9.752c5.807-.367,10.839,4.096,11.188,9.929.347,5.831-4.097,10.839-9.929,11.188l-163.503,9.752c-.214.013-.428.019-.639.019Zm167.643,91.071v-2.059c0-2.142-1.737-3.879-3.879-3.879h-161.816c-2.142,0-3.879,1.737-3.879,3.879v5.045c0,.991.375,1.946,1.059,2.664,11.759,12.326,37.508,35.689,58.831,47.305,2.224,0,5.347,8.983,23.507,8.983,18.53,0,20.255-8.983,22.228-8.983,29.006-17.614,49.629-36.176,62.909-50.306.675-.718,1.04-1.662,1.04-2.647Zm-109.891-125.8c.071-3.873,1.482-81.378,1.482-105.32,0-28.985-24.355-59.621-48.413-74.904-17.382-11.041-41.176-40.662-55.817-119.072-.516-2.763-.827-4.431-1.102-5.493-.412-1.594-.694-2.985-.879-4.185,3.029,8.864,27.988,80.963,50.307,116.652,4.851,7.756,13.682,13.023,20.992,12.51,3.467-.24,6.554-1.843,8.929-4.636,8.812-10.364,6.836-39.582,2.817-82.973-.758-8.181-1.484-16.021-1.884-22.218,3.136,8.083,6.58,17.333,9.691,25.689,13.771,36.982,23.304,61.801,30.083,69.528,1.406,1.603,2.585,3.078,3.724,4.503,4.196,5.252,8.973,11.198,18.386,10.686,9.536-.523,10.131-11.93,10.608-21.096.386-7.43.468-17.978.242-31.348-.369-21.739-1.472-46.765-2.189-62.336,7.296,29.022,16.447,76.801,19.016,93.688,1.355,8.907,7.376,14.604,15.385,14.604.109,0,.22-.001.331-.003,11.991-.233,16.219-16.645,25.485-52.604,6.828-26.501,15.327-59.483,25.896-73.582.369-.492.7-.891.988-1.212.13.635.239,1.552.265,2.865.009.482.061,1.335.141,2.527,3.153,46.977-8.79,89.094-33.632,118.591-12.186,14.473-22.256,24.627-30.345,32.787-15.823,15.958-25.372,25.589-25.372,43.731v112.622m69.459,0c3.094,0,5.966-1.556,7.671-4.138,5.041-7.634,14.848-24.822,14.848-43.001,0-75.065,75.694-109.858,75.694-216.975s-86.3-187.947-188.919-187.947-188.919,80.831-188.919,187.947,75.694,141.91,75.694,216.975c0,18.178,9.807,35.367,14.848,43.001,1.705,2.582,4.577,4.138,7.671,4.138h49.898c.015-.806,1.482-81.039,1.482-105.32,0-21.815-20.624-47.953-40.565-60.62-29.404-18.678-50.728-62.501-63.378-130.251-.353-1.895-.72-3.854-.85-4.362-5.746-22.222,4.29-27.937,8.872-29.362,10.007-3.115,18.359,4.891,22.2,14.208l.192.512c.264.779,26.646,78.321,48.896,113.9,1.036,1.656,2.419,2.853,3.607,3.612,3.19-11.43-.311-49.225-2.067-68.177-1.076-11.622-2.006-21.66-2.226-28.793l-.008-.256c-.322-10.408-.809-26.137,10.58-29.934,5.114-1.705,9.566.884,13.223,7.701,1.431,2.667,3.172,6.5,5.326,11.718,3.874,9.39,8.609,22.106,13.622,35.568,9.163,24.607,21.71,58.307,26.944,64.273,1.207,1.375,2.255,2.649,3.196,3.818.587-12.97.319-40.336-2.249-95.72-.42-9.075-.507-11.112-.48-12.059.019-.598.022-1.199.025-1.799.031-4.966.099-16.597,13.495-19.63,2.578-.583,5.241-.056,7.496,1.482,3.601,2.457,8.085,5.513,20.271,63.211,4.68,22.161,8.879,44.926,10.909,56.629,2.975-8.682,6.444-22.142,9.216-32.901,7.576-29.403,16.162-62.729,28.742-79.511,8.78-11.71,17.662-9.344,21.071-7.785,4.725,2.164,10.407,7.259,10.641,19.253.009.335.052.92.106,1.729,3.448,51.37-9.894,97.76-37.57,130.625-12.631,14.998-22.969,25.425-31.275,33.802-15.547,15.681-20.466,21.15-20.466,31.816v112.622" fill="#fff"/>
      </g>
    </g>
    <g id="WorkshopLogoTextAlt">
      <g>
        <g>
          <path d="m887.4,228.87c-12.45,0-20.039,9.32-20.039,20.042,0,11.318,8.655,19.973,19.575,19.907,13.382,0,20.172-10.319,20.172-19.975,0-10.653-7.656-19.973-19.708-19.973Z" fill="#fff"/>
          <path d="m698.989,237.925c0-6.659-4.594-8.655-11.119-8.655h-7.124v17.643h5.26c7.723,0,12.983-1.799,12.983-8.989Z" fill="#fff"/>
          <path d="m636.406,228.87c-12.451,0-20.042,9.32-20.042,20.042,0,11.318,8.656,19.973,19.575,19.907,13.382,0,20.174-10.319,20.174-19.975,0-10.653-7.657-19.973-19.708-19.973Z" fill="#fff"/>
          <path d="m939.729,229.271h-7.99v18.041h7.99c7.658,0,11.453-3.061,11.453-9.121,0-5.992-3.93-8.92-11.453-8.92Z" fill="#fff"/>
          <path d="m526.015,218.705v60.837h436.159v-60.837h-436.159Zm58.196,53.243h-.733l-15.713-40.282-15.447,40.282h-.666l-18.11-45.807h3.596l14.781,37.818h.066l14.381-37.818h2.729l14.781,37.55h.066l14.315-37.55h3.595l-17.643,45.807Zm51.795.199c-13.915,0-23.236-10.653-23.236-22.97,0-13.382,9.588-23.635,23.302-23.635,14.649,0,23.636,10.785,23.636,23.036,0,13.184-9.588,23.569-23.703,23.569Zm70.041-.599l-8.722-13.915c-3.862-6.06-6.525-7.523-11.053-7.523h-5.526v21.438h-3.461v-45.407h11.451c9.055,0,13.849,4.592,13.849,11.784,0,5.992-3.528,9.853-9.52,11.119,3.062,1.33,4.527,2.729,7.523,7.391l9.654,15.113h-4.194Zm45.138,0l-23.369-22.636v22.636h-3.463v-45.407h3.463v21.905l20.705-21.905h4.395l-20.907,22.17,23.969,23.237h-4.794Zm28.826.599c-4.194,0-7.99-1.264-11.318-3.728v-4.327c3.595,3.262,7.257,4.926,11.386,4.926,5.326,0,9.121-3.328,9.121-8.589,0-4.526-1.664-6.991-10.186-10.987-7.591-3.461-10.454-6.789-10.454-12.715,0-6.461,5.326-11.185,12.783-11.185,3.33,0,6.726.864,9.721,2.663v3.927c-3.13-2.263-6.459-3.461-9.788-3.461-5.526,0-9.187,3.262-9.187,7.921,0,3.596.931,6.593,9.121,10.189,9.121,4.126,11.584,7.457,11.584,13.647,0,6.858-5.126,11.718-12.783,11.718Zm66.179-.599h-3.462v-21.306h-29.628v21.306h-3.463v-45.407h3.463v20.839h29.628v-20.839h3.462v45.407Zm40.812.599c-13.916,0-23.237-10.653-23.237-22.97,0-13.382,9.588-23.635,23.304-23.635,14.646,0,23.635,10.785,23.635,23.036,0,13.184-9.588,23.569-23.701,23.569Zm52.66-21.706h-7.923v21.107h-3.461v-45.407h12.049c8.922,0,14.45,4.327,14.45,12.118,0,7.987-5.528,12.182-15.115,12.182Z" fill="#fff"/>
        </g>
        <g>
          <path d="m451.376,44.571v27.075h-61.251v33.066h61.251v27.297h-61.251v63.914h-38.171V44.571h99.422Z" fill="#fff"/>
          <path d="m558.123,44.349l66.577,151.574h-39.059l-14.647-34.842h-65.024l-14.425,34.842h-39.059l65.911-151.574h39.725Zm-42.166,92.32h45.05l-22.636-55.037-22.415,55.037Z" fill="#fff"/>
          <path d="m705.257,44.571c32.179,0,51.486,14.203,51.486,36.618,0,15.091-8.655,27.519-21.748,32.845,22.636,7.102,32.845,21.526,32.845,39.502,0,33.511-27.297,42.388-61.251,42.388h-65.689V44.571h64.357Zm-26.187,62.804h16.2c16.2,0,25.077-5.548,25.077-19.973,0-13.315-7.323-19.308-23.523-19.308h-17.754v39.28Zm19.973,65.024c19.751,0,30.404-6.436,30.404-20.639,0-13.981-10.208-21.083-30.404-21.083h-19.973v41.722h19.973Z" fill="#fff"/>
          <path d="m805.123,44.571v140.7h74.345v10.652h-85.884V44.571h11.539Z" fill="#fff"/>
          <path d="m961.357,43.461l67.242,152.462h-12.205l-22.193-50.155h-73.456l-21.526,50.155h-12.206l66.133-152.462h8.212Zm-35.952,91.877h64.136l-32.4-73.901-31.735,73.901Z" fill="#fff"/>
          <path d="m1081.197,44.571c25.521,0,46.825,12.206,46.825,38.171,0,17.31-9.765,29.738-26.853,34.398,24.634,2.663,39.502,17.532,39.502,39.059,0,25.521-21.305,39.725-50.154,39.725h-43.941V44.571h34.621Zm-23.08,69.24h18.197c26.631,0,39.502-11.318,39.502-29.738,0-19.973-12.649-29.072-37.727-29.072h-19.973v58.81Zm30.403,71.681c23.08,0,40.168-8.655,40.168-30.182,0-20.195-14.425-31.069-43.94-31.069h-26.631v61.251h30.403Z" fill="#fff"/>
        </g>
      </g>
    </g>
  </g>
</svg>