<?xml version="1.0" encoding="UTF-8"?>
<svg id="Layer_1" data-name="Layer 1" xmlns="http://www.w3.org/2000/svg" width="103.185mm" height="55.755mm" viewBox="0 0 292.494 158.047">
  <g id="text3" isolation="isolate">
    <g isolation="isolate">
      <path d="M22.089,59.64V13.179h14.712c4.428,0,7.959,1.195,10.594,3.586,2.634,2.391,3.952,5.602,3.952,9.631,0,2.701-.676,5.092-2.026,7.173-1.351,2.082-3.2,3.592-5.546,4.533-2.347.941-5.712,1.412-10.096,1.412h-4.916v20.125h-6.675ZM35.639,19.09h-6.875v14.513h7.273c2.701,0,4.782-.636,6.243-1.91,1.461-1.273,2.192-3.094,2.192-5.463,0-4.76-2.945-7.141-8.834-7.141Z" fill="#fff"/>
      <path d="M62.772,29.086v7.007l.332-.531c2.922-4.716,5.845-7.074,8.768-7.074,2.28,0,4.661,1.151,7.14,3.454l-3.188,5.314c-2.104-1.993-4.052-2.989-5.845-2.989-1.948,0-3.636.93-5.064,2.79-1.428,1.859-2.142,4.063-2.142,6.609v15.974h-6.078v-30.554h6.078Z" fill="#fff"/>
      <path d="M107.905,44.894h-21.487c.155,2.923,1.134,5.248,2.939,6.974,1.805,1.727,4.135,2.591,6.991,2.591,3.985,0,7.66-1.24,11.026-3.72v5.912c-1.86,1.24-3.703,2.125-5.53,2.657s-3.969.797-6.426.797c-3.366,0-6.089-.697-8.17-2.092-2.081-1.395-3.748-3.271-4.998-5.629-1.251-2.358-1.876-5.086-1.876-8.187,0-4.649,1.317-8.43,3.952-11.341,2.635-2.911,6.055-4.367,10.262-4.367,4.052,0,7.284,1.417,9.697,4.251,2.413,2.834,3.62,6.631,3.62,11.391v.764ZM86.551,41.275h15.376c-.155-2.413-.875-4.273-2.159-5.58-1.284-1.306-3.011-1.959-5.181-1.959s-3.947.653-5.331,1.959c-1.384,1.307-2.286,3.167-2.707,5.58Z" fill="#fff"/>
      <path d="M112.953,57.448v-6.509c1.705,1.196,3.448,2.165,5.231,2.906,1.782.742,3.282,1.113,4.5,1.113,1.262,0,2.346-.31,3.254-.93.908-.619,1.362-1.361,1.362-2.225,0-.885-.294-1.622-.88-2.208-.586-.586-1.854-1.433-3.802-2.541-3.897-2.169-6.449-4.023-7.655-5.562-1.207-1.539-1.81-3.216-1.81-5.032,0-2.346.914-4.262,2.74-5.745,1.826-1.483,4.179-2.225,7.057-2.225,2.989,0,6.055.841,9.199,2.524v5.978c-3.587-2.17-6.521-3.255-8.801-3.255-1.174,0-2.12.25-2.839.749-.72.499-1.08,1.158-1.08,1.978,0,.71.326,1.386.978,2.028.652.643,1.798,1.417,3.437,2.325l2.159,1.229c5.094,2.877,7.641,6.065,7.641,9.562,0,2.501-.98,4.554-2.939,6.159-1.959,1.604-4.478,2.407-7.555,2.407-1.816,0-3.432-.194-4.849-.581-1.417-.387-3.2-1.101-5.347-2.142Z" fill="#fff"/>
      <path d="M143.739,16.234c.997,0,1.849.344,2.558,1.03.708.687,1.062,1.527,1.062,2.524,0,.975-.354,1.815-1.062,2.524-.709.709-1.561,1.062-2.558,1.062-.93,0-1.749-.359-2.458-1.079-.708-.719-1.062-1.555-1.062-2.507,0-.93.354-1.754,1.062-2.474.708-.719,1.528-1.08,2.458-1.08ZM140.751,29.086h6.044v30.554h-6.044v-30.554Z" fill="#fff"/>
      <path d="M175.92,13.245h6.077v46.395h-12.919c-4.517,0-8.12-1.428-10.81-4.284-2.69-2.856-4.035-6.686-4.035-11.491,0-4.495,1.411-8.192,4.234-11.092,2.822-2.9,6.426-4.351,10.81-4.351,2.037,0,4.251.432,6.643,1.295V13.245ZM175.92,54.459v-19.362c-1.883-.952-3.786-1.428-5.713-1.428-3.011,0-5.408.985-7.189,2.956-1.783,1.971-2.674,4.628-2.674,7.971,0,3.144.774,5.568,2.325,7.273.93,1.019,1.914,1.706,2.955,2.059,1.041.354,2.911.532,5.613.532h4.683Z" fill="#fff"/>
      <path d="M216.238,44.894h-21.487c.154,2.923,1.135,5.248,2.939,6.974,1.804,1.727,4.135,2.591,6.99,2.591,3.985,0,7.66-1.24,11.026-3.72v5.912c-1.86,1.24-3.703,2.125-5.529,2.657-1.827.531-3.969.797-6.427.797-3.365,0-6.089-.697-8.17-2.092-2.081-1.395-3.747-3.271-4.998-5.629s-1.876-5.086-1.876-8.187c0-4.649,1.316-8.43,3.952-11.341,2.634-2.911,6.055-4.367,10.262-4.367,4.052,0,7.284,1.417,9.697,4.251s3.62,6.631,3.62,11.391v.764ZM194.883,41.275h15.377c-.155-2.413-.875-4.273-2.159-5.58-1.284-1.306-3.011-1.959-5.181-1.959s-3.947.653-5.33,1.959c-1.384,1.307-2.287,3.167-2.707,5.58Z" fill="#fff"/>
      <path d="M228.825,29.086v3.886c2.701-2.989,5.768-4.483,9.199-4.483,1.904,0,3.676.493,5.314,1.478,1.638.986,2.884,2.336,3.736,4.052.852,1.716,1.278,4.434,1.278,8.153v17.469h-6.045v-17.402c0-3.122-.476-5.352-1.428-6.692-.952-1.339-2.546-2.009-4.782-2.009-2.856,0-5.28,1.428-7.273,4.284v21.819h-6.177v-30.554h6.177Z" fill="#fff"/>
      <path d="M252.503,33.935l11.358-11.159v6.31h9.664v5.446h-9.664v14.954c0,3.493,1.449,5.239,4.351,5.239,2.169,0,4.461-.719,6.874-2.159v5.646c-2.324,1.307-4.86,1.959-7.605,1.959-2.768,0-5.07-.808-6.907-2.424-.576-.487-1.052-1.035-1.428-1.644-.377-.608-.692-1.406-.947-2.391-.255-.985-.382-2.861-.382-5.629v-13.55h-5.313v-.598Z" fill="#fff"/>
    </g>
  </g>
  <g id="text4" isolation="isolate">
    <g isolation="isolate">
      <path d="M18.958,142.293h-10.896v-32.18h8.431c2.656,0,4.729.357,6.219,1.071,1.489.714,2.626,1.697,3.409,2.948.783,1.252,1.175,2.699,1.175,4.343,0,3.163-1.636,5.429-4.906,6.795,2.349.445,4.219,1.413,5.609,2.902,1.39,1.489,2.084,3.271,2.084,5.344,0,1.644-.422,3.11-1.267,4.399-.845,1.29-2.084,2.343-3.72,3.156-1.636.814-3.682,1.221-6.139,1.221ZM16.631,114.214h-3.962v9.675h3.063c2.457,0,4.204-.469,5.24-1.405s1.555-2.15,1.555-3.64c0-3.087-1.966-4.63-5.897-4.63ZM16.977,127.988h-4.308v10.204h4.538c2.519,0,4.227-.195,5.125-.587.898-.392,1.62-1.002,2.165-1.831.545-.829.818-1.72.818-2.672,0-.983-.288-1.881-.864-2.695-.576-.813-1.394-1.42-2.453-1.819s-2.734-.6-5.021-.6Z" fill="#fff"/>
      <path d="M52.105,132.065h-14.904c.107,2.027.787,3.64,2.039,4.838,1.251,1.197,2.868,1.796,4.849,1.796,2.764,0,5.313-.859,7.647-2.579v4.1c-1.29.86-2.568,1.475-3.835,1.843-1.267.369-2.752.553-4.457.553-2.334,0-4.223-.483-5.667-1.451-1.444-.967-2.6-2.269-3.467-3.904-.868-1.636-1.301-3.527-1.301-5.678,0-3.225.913-5.847,2.741-7.866s4.2-3.029,7.118-3.029c2.811,0,5.052.983,6.726,2.948,1.674,1.966,2.511,4.6,2.511,7.901v.529ZM37.293,129.554h10.665c-.107-1.674-.607-2.963-1.497-3.869-.891-.906-2.089-1.359-3.594-1.359s-2.737.453-3.697,1.359c-.96.906-1.586,2.195-1.877,3.869Z" fill="#fff"/>
      <path d="M60.835,121.101v2.694c1.874-2.073,4-3.109,6.381-3.109,1.32,0,2.549.342,3.686,1.025,1.136.684,2,1.62,2.591,2.81.591,1.19.887,3.075.887,5.655v12.116h-4.192v-12.07c0-2.165-.33-3.712-.99-4.642-.661-.929-1.766-1.394-3.317-1.394-1.981,0-3.663.991-5.045,2.972v15.134h-4.284v-21.191h4.284Z" fill="#fff"/>
      <path d="M80.184,121.101h4.192v24.209c0,3.67-1.409,6.266-4.227,7.785l-3.121-3.063c.968-.338,1.735-.929,2.304-1.773.568-.845.852-1.827.852-2.948v-24.209ZM82.165,112.186c.691,0,1.282.242,1.774.726.491.484.737,1.063.737,1.739,0,.707-.234,1.298-.703,1.773-.468.477-1.056.715-1.762.715-.661,0-1.244-.246-1.751-.737s-.76-1.075-.76-1.751c0-.645.249-1.217.749-1.716.499-.499,1.071-.749,1.716-.749Z" fill="#fff"/>
      <path d="M103.886,129.554v9.007c0,.722.245,1.082.737,1.082.507,0,1.297-.376,2.373-1.128v2.557c-.952.614-1.716,1.033-2.292,1.255-.576.223-1.179.334-1.808.334-1.797,0-2.856-.706-3.179-2.119-1.782,1.383-3.678,2.073-5.689,2.073-1.474,0-2.703-.487-3.686-1.463-.983-.975-1.474-2.199-1.474-3.674,0-1.336.479-2.529,1.439-3.582.959-1.052,2.323-1.885,4.089-2.499l5.367-1.843v-1.129c0-2.549-1.275-3.823-3.824-3.823-2.288,0-4.515,1.183-6.68,3.547v-4.584c1.627-1.919,3.969-2.879,7.025-2.879,2.288,0,4.123.599,5.505,1.797.46.384.875.895,1.244,1.531.369.638.603,1.275.703,1.912.1.638.15,1.847.15,3.628ZM99.763,138.1v-6.288l-2.81,1.082c-1.428.568-2.438,1.141-3.029,1.717-.591.575-.887,1.294-.887,2.153,0,.875.28,1.59.841,2.143s1.286.829,2.177.829c1.336,0,2.572-.545,3.708-1.636Z" fill="#fff"/>
      <path d="M128.072,126.906v15.387h-4.215v-11.794c0-2.35-.315-3.988-.944-4.918-.63-.929-1.728-1.394-3.294-1.394-.875,0-1.678.2-2.407.6s-1.562,1.105-2.499,2.119v15.387h-4.192v-21.191h4.192v2.787c2.134-2.135,4.223-3.202,6.265-3.202,2.688,0,4.769,1.274,6.243,3.824,2.242-2.58,4.584-3.87,7.025-3.87,2.058,0,3.751.753,5.079,2.257,1.328,1.506,1.993,3.801,1.993,6.888v12.508h-4.192v-12.554c0-1.766-.361-3.117-1.083-4.054-.722-.937-1.759-1.405-3.11-1.405-1.735,0-3.355.875-4.86,2.626Z" fill="#fff"/>
      <path d="M149.241,112.186c.691,0,1.283.238,1.773.715.492.476.738,1.06.738,1.75,0,.676-.246,1.26-.738,1.751-.49.491-1.082.737-1.773.737-.645,0-1.213-.25-1.704-.749-.492-.499-.737-1.079-.737-1.739,0-.645.246-1.217.737-1.716.491-.499,1.06-.749,1.704-.749ZM147.168,121.101h4.192v21.191h-4.192v-21.191Z" fill="#fff"/>
      <path d="M161.611,121.101v2.694c1.873-2.073,4-3.109,6.38-3.109,1.321,0,2.549.342,3.686,1.025s2,1.62,2.592,2.81c.591,1.19.887,3.075.887,5.655v12.116h-4.192v-12.07c0-2.165-.33-3.712-.99-4.642-.66-.929-1.767-1.394-3.317-1.394-1.98,0-3.662.991-5.044,2.972v15.134h-4.285v-21.191h4.285Z" fill="#fff"/>
      <path d="M202.659,128.81l-3.502-2.127c-2.196-1.342-3.758-2.66-4.688-3.958-.929-1.298-1.394-2.791-1.394-4.48,0-2.534.879-4.592,2.638-6.174,1.758-1.581,4.043-2.372,6.853-2.372,2.688,0,5.152.754,7.395,2.263v5.229c-2.319-2.23-4.814-3.346-7.486-3.346-1.505,0-2.741.348-3.709,1.044-.967.696-1.451,1.587-1.451,2.673,0,.964.356,1.866,1.069,2.707.713.842,1.858,1.725,3.438,2.65l3.519,2.082c3.925,2.345,5.888,5.328,5.888,8.952,0,2.58-.863,4.677-2.591,6.289s-3.974,2.418-6.738,2.418c-3.179,0-6.073-.977-8.684-2.931v-5.851c2.487,3.151,5.367,4.728,8.638,4.728,1.443,0,2.646-.401,3.605-1.205.959-.804,1.439-1.81,1.439-3.019,0-1.958-1.413-3.816-4.238-5.573Z" fill="#fff"/>
      <path d="M225.854,121.054c3.225,0,5.904,1.041,8.039,3.122s3.202,4.695,3.202,7.843c0,3.056-1.083,5.594-3.248,7.613s-4.892,3.028-8.177,3.028c-3.18,0-5.836-1.024-7.971-3.075-2.135-2.05-3.201-4.61-3.201-7.682,0-3.102,1.078-5.686,3.236-7.751,2.157-2.065,4.863-3.099,8.119-3.099ZM225.624,124.833c-2.012,0-3.662.66-4.952,1.98-1.29,1.321-1.935,3.003-1.935,5.045,0,2.027.66,3.682,1.98,4.964s3.018,1.924,5.091,1.924c2.058,0,3.743-.649,5.056-1.947,1.313-1.297,1.97-2.96,1.97-4.986,0-2.012-.684-3.678-2.05-4.999-1.367-1.32-3.087-1.98-5.16-1.98Z" fill="#fff"/>
      <path d="M241.839,110.113h4.192v32.18h-4.192v-32.18Z" fill="#fff"/>
      <path d="M265.404,129.554v9.007c0,.722.246,1.082.737,1.082.507,0,1.298-.376,2.373-1.128v2.557c-.953.614-1.717,1.033-2.292,1.255-.576.223-1.179.334-1.809.334-1.797,0-2.856-.706-3.179-2.119-1.781,1.383-3.678,2.073-5.689,2.073-1.475,0-2.703-.487-3.686-1.463-.983-.975-1.475-2.199-1.475-3.674,0-1.336.48-2.529,1.44-3.582.959-1.052,2.322-1.885,4.088-2.499l5.367-1.843v-1.129c0-2.549-1.274-3.823-3.823-3.823-2.289,0-4.515,1.183-6.681,3.547v-4.584c1.628-1.919,3.97-2.879,7.025-2.879,2.288,0,4.124.599,5.506,1.797.461.384.875.895,1.244,1.531.368.638.602,1.275.702,1.912.1.638.149,1.847.149,3.628ZM261.281,138.1v-6.288l-2.811,1.082c-1.428.568-2.438,1.141-3.028,1.717-.592.575-.887,1.294-.887,2.153,0,.875.279,1.59.841,2.143.56.553,1.285.829,2.177.829,1.336,0,2.571-.545,3.708-1.636Z" fill="#fff"/>
      <path d="M276.714,121.101v4.86l.23-.369c2.027-3.271,4.055-4.906,6.081-4.906,1.582,0,3.232.799,4.953,2.396l-2.212,3.686c-1.459-1.382-2.811-2.073-4.054-2.073-1.352,0-2.522.646-3.513,1.936-.991,1.289-1.486,2.817-1.486,4.583v11.08h-4.215v-21.191h4.215Z" fill="#fff"/>
    </g>
  </g>
  <g id="text5" isolation="isolate">
    <g isolation="isolate">
      <path d="M123.084,95.396h7.437v2.699h-12.361v-.195l1.174-1.385c1.836-2.274,3.298-4.204,4.384-5.789s1.794-2.783,2.125-3.594c.331-.812.497-1.612.497-2.405,0-1.1-.312-1.983-.937-2.649-.625-.667-1.454-1-2.489-1-.783,0-1.555.23-2.314.692-.76.461-1.443,1.111-2.048,1.95v-3.552c1.519-1.239,3.085-1.859,4.698-1.859,1.706,0,3.111.568,4.216,1.706,1.105,1.138,1.657,2.582,1.657,4.335,0,.783-.138,1.62-.413,2.511-.274.891-.762,1.916-1.46,3.076-.699,1.161-1.887,2.743-3.564,4.748l-.601.711Z" fill="#fff"/>
      <path d="M139.057,78.309c1.79,0,3.27.938,4.439,2.817s1.755,4.263,1.755,7.152c0,2.965-.585,5.374-1.755,7.229s-2.687,2.782-4.551,2.782c-1.893,0-3.412-.908-4.559-2.727-1.147-1.817-1.72-4.228-1.72-7.229,0-2.964.592-5.376,1.776-7.236,1.184-1.859,2.722-2.789,4.615-2.789ZM139.085,80.966h-.14c-1.072,0-1.923.66-2.552,1.979-.629,1.319-.944,3.107-.944,5.363,0,2.312.308,4.125.923,5.439s1.463,1.972,2.545,1.972,1.935-.657,2.559-1.972.937-3.1.937-5.355-.301-4.069-.902-5.412c-.602-1.342-1.41-2.014-2.426-2.014Z" fill="#fff"/>
      <path d="M152.295,95.396h7.436v2.699h-12.361v-.195l1.174-1.385c1.838-2.274,3.299-4.204,4.385-5.789s1.795-2.783,2.125-3.594c.33-.812.496-1.612.496-2.405,0-1.1-.312-1.983-.936-2.649-.625-.667-1.455-1-2.49-1-.783,0-1.555.23-2.314.692-.76.461-1.442,1.111-2.048,1.95v-3.552c1.519-1.239,3.085-1.859,4.698-1.859,1.705,0,3.111.568,4.217,1.706,1.104,1.138,1.656,2.582,1.656,4.335,0,.783-.137,1.62-.412,2.511s-.762,1.916-1.461,3.076c-.699,1.161-1.887,2.743-3.564,4.748l-.6.711Z" fill="#fff"/>
      <path d="M163.89,78.56h8.67v2.489h-6.125v4.937c.196-.019.396-.028.602-.028,1.893,0,3.449.576,4.67,1.728,1.222,1.151,1.832,2.617,1.832,4.397,0,1.837-.604,3.33-1.811,4.481-1.208,1.151-2.771,1.727-4.691,1.727-1.585,0-3.123-.382-4.614-1.146v-2.88c1.407.913,2.782,1.37,4.125,1.37,1.174,0,2.16-.343,2.957-1.028.797-.685,1.195-1.526,1.195-2.523,0-1.035-.434-1.899-1.3-2.594-.867-.694-1.949-1.042-3.244-1.042-1.109,0-1.865.093-2.266.279v-10.166Z" fill="#fff"/>
    </g>
  </g>
</svg>