<?xml version="1.0" encoding="UTF-8"?>
<svg id="Layer_1" data-name="Layer 1" xmlns="http://www.w3.org/2000/svg" width="103.185mm" height="55.755mm" viewBox="0 0 292.494 158.047">
  <g id="text3" isolation="isolate">
    <g isolation="isolate">
      <path d="M60.84,48.88v7.306c-4.871,2.657-10.495,3.985-16.871,3.985-5.181,0-9.576-1.041-13.185-3.122-3.609-2.081-6.465-4.948-8.568-8.602-2.104-3.653-3.155-7.605-3.155-11.856,0-6.752,2.408-12.432,7.223-17.037s10.754-6.908,17.817-6.908c4.871,0,10.284,1.273,16.24,3.819v7.14c-5.424-3.099-10.727-4.649-15.908-4.649-5.313,0-9.726,1.677-13.234,5.032-3.509,3.354-5.264,7.555-5.264,12.603,0,5.093,1.727,9.277,5.181,12.554,3.454,3.277,7.871,4.915,13.251,4.915,5.624,0,11.114-1.727,16.473-5.181Z" fill="#fff"/>
      <path d="M105.874,13.245h6.31v46.395h-5.712l-31.019-35.731v35.731h-6.244V13.245h5.38l31.284,36.035V13.245Z" fill="#fff"/>
      <path d="M162.098,48.88v7.306c-4.871,2.657-10.494,3.985-16.87,3.985-5.181,0-9.576-1.041-13.185-3.122-3.609-2.081-6.465-4.948-8.568-8.602-2.104-3.653-3.155-7.605-3.155-11.856,0-6.752,2.408-12.432,7.223-17.037s10.754-6.908,17.817-6.908c4.87,0,10.284,1.273,16.239,3.819v7.14c-5.424-3.099-10.727-4.649-15.907-4.649-5.313,0-9.726,1.677-13.234,5.032-3.509,3.354-5.264,7.555-5.264,12.603,0,5.093,1.727,9.277,5.181,12.554,3.454,3.277,7.871,4.915,13.251,4.915,5.624,0,11.114-1.727,16.472-5.181Z" fill="#fff"/>
      <path d="M211.931,12.58c7.169,0,13.138,2.27,17.905,6.809,4.769,4.539,7.152,10.229,7.152,17.07s-2.406,12.504-7.219,16.987-10.88,6.725-18.203,6.725c-6.992,0-12.816-2.242-17.474-6.725-4.658-4.483-6.986-10.101-6.986-16.854,0-6.929,2.345-12.664,7.036-17.203,4.69-4.539,10.62-6.809,17.788-6.809ZM212.197,18.89c-5.309,0-9.672,1.661-13.089,4.982-3.418,3.321-5.127,7.561-5.127,12.719,0,5.004,1.714,9.167,5.144,12.487,3.428,3.321,7.72,4.981,12.873,4.981s9.495-1.693,12.957-5.081c3.462-3.387,5.193-7.605,5.193-12.653,0-4.915-1.731-9.05-5.193-12.404-3.462-3.354-7.715-5.032-12.758-5.032Z" fill="#fff"/>
      <path d="M244.793,59.64V13.179h14.712c4.429,0,7.96,1.195,10.595,3.586s3.952,5.602,3.952,9.631c0,2.701-.676,5.092-2.026,7.173-1.351,2.082-3.199,3.592-5.546,4.533-2.347.941-5.712,1.412-10.096,1.412h-4.915v20.125h-6.676ZM258.343,19.09h-6.874v14.513h7.272c2.701,0,4.782-.636,6.244-1.91,1.461-1.273,2.191-3.094,2.191-5.463,0-4.76-2.944-7.141-8.834-7.141Z" fill="#fff"/>
      <path d="M271.927,52.234c1.129,0,2.092.387,2.889,1.162.798.775,1.196,1.727,1.196,2.856,0,1.107-.394,2.038-1.18,2.79s-1.755,1.129-2.905,1.129c-1.13,0-2.082-.376-2.856-1.129-.775-.752-1.162-1.683-1.162-2.79,0-1.129.387-2.081,1.162-2.856.774-.775,1.727-1.162,2.856-1.162Z" fill="#fff"/>
    </g>
  </g>
  <g id="text4" isolation="isolate">
    <g isolation="isolate">
      <path d="M10.032,110.113h4.607v27.987h14.489v4.192H10.032v-32.18Z" fill="#fff"/>
      <path d="M42.717,121.054c3.225,0,5.905,1.041,8.039,3.122s3.202,4.695,3.202,7.843c0,3.056-1.083,5.594-3.248,7.613s-4.891,3.028-8.177,3.028c-3.179,0-5.835-1.024-7.97-3.075-2.135-2.05-3.202-4.61-3.202-7.682,0-3.102,1.079-5.686,3.236-7.751s4.864-3.099,8.12-3.099ZM42.487,124.833c-2.012,0-3.663.66-4.953,1.98-1.29,1.321-1.935,3.003-1.935,5.045,0,2.027.66,3.682,1.981,4.964s3.018,1.924,5.091,1.924c2.058,0,3.743-.649,5.056-1.947,1.313-1.297,1.969-2.96,1.969-4.986,0-2.012-.683-3.678-2.05-4.999-1.367-1.32-3.087-1.98-5.16-1.98Z" fill="#fff"/>
      <path d="M72.11,142.293v-2.718c-.891.975-1.908,1.732-3.052,2.274-1.144.541-2.284.812-3.42.812-1.336,0-2.568-.334-3.697-1.002-1.128-.668-1.981-1.573-2.557-2.718-.576-1.144-.864-3.044-.864-5.701v-12.139h4.192v12.077c0,2.224.318,3.777.956,4.659s1.754,1.322,3.352,1.322c1.996,0,3.693-.975,5.091-2.925v-15.134h4.192v21.191h-4.192Z" fill="#fff"/>
      <path d="M84.364,112.186c.691,0,1.282.238,1.773.715.492.476.737,1.06.737,1.75,0,.676-.246,1.26-.737,1.751-.491.491-1.083.737-1.773.737-.645,0-1.213-.25-1.705-.749-.492-.499-.737-1.079-.737-1.739,0-.645.246-1.217.737-1.716.491-.499,1.06-.749,1.705-.749ZM82.291,121.101h4.192v21.191h-4.192v-21.191Z" fill="#fff"/>
      <path d="M91.505,140.772v-4.515c1.182.829,2.392,1.501,3.628,2.016,1.236.515,2.276.771,3.121.771.875,0,1.627-.215,2.257-.645.629-.43.944-.944.944-1.544,0-.613-.204-1.124-.61-1.531-.407-.407-1.286-.994-2.637-1.763-2.703-1.505-4.473-2.79-5.31-3.857-.837-1.067-1.255-2.23-1.255-3.49,0-1.628.633-2.956,1.9-3.985,1.267-1.028,2.898-1.543,4.895-1.543,2.073,0,4.2.584,6.381,1.751v4.146c-2.488-1.505-4.523-2.257-6.104-2.257-.814,0-1.47.173-1.969.519s-.749.804-.749,1.372c0,.492.226.962.678,1.407.452.446,1.247.983,2.384,1.612l1.498.852c3.533,1.996,5.3,4.207,5.3,6.633,0,1.734-.68,3.158-2.039,4.271-1.359,1.113-3.106,1.669-5.241,1.669-1.259,0-2.38-.134-3.363-.402-.983-.269-2.219-.764-3.708-1.486Z" fill="#fff"/>
      <path d="M124.421,142.247v-32.134h10.85c4.376,0,7.839.657,10.388,1.97,2.549,1.313,4.576,3.244,6.08,5.793,1.506,2.55,2.258,5.329,2.258,8.339,0,2.15-.414,4.208-1.244,6.173-.828,1.966-2.012,3.694-3.547,5.184-1.566,1.535-3.385,2.694-5.458,3.478-1.213.477-2.327.795-3.34.956-1.014.161-2.949.242-5.805.242h-10.181ZM134.787,114.214h-5.759v23.933h5.897c2.303,0,4.092-.157,5.367-.472,1.274-.314,2.338-.714,3.19-1.198.853-.483,1.632-1.078,2.338-1.785,2.272-2.304,3.409-5.213,3.409-8.729,0-3.456-1.167-6.273-3.501-8.454-.86-.813-1.847-1.481-2.96-2.004-1.114-.522-2.169-.867-3.167-1.037-.998-.168-2.603-.253-4.814-.253Z" fill="#fff"/>
      <path d="M172.678,142.293v-2.718c-.891.975-1.908,1.732-3.052,2.274-1.145.541-2.285.812-3.421.812-1.336,0-2.568-.334-3.697-1.002s-1.98-1.573-2.557-2.718c-.576-1.144-.864-3.044-.864-5.701v-12.139h4.192v12.077c0,2.224.318,3.777.956,4.659s1.755,1.322,3.352,1.322c1.996,0,3.693-.975,5.091-2.925v-15.134h4.192v21.191h-4.192Z" fill="#fff"/>
      <path d="M182.491,153.095v-31.994h7.339c3.758,0,6.684.937,8.777,2.81,2.094,1.874,3.141,4.492,3.141,7.855,0,3.179-.985,5.789-2.956,7.831-1.97,2.043-4.48,3.063-7.531,3.063-1.351,0-2.845-.299-4.485-.898v11.333h-4.284ZM189.74,125.016h-2.965v13.038c1.287.66,2.636.99,4.046.99,1.961,0,3.565-.683,4.814-2.05,1.249-1.366,1.874-3.125,1.874-5.275,0-1.382-.296-2.603-.886-3.662s-1.394-1.831-2.413-2.315c-1.019-.483-2.509-.726-4.471-.726Z" fill="#fff"/>
      <path d="M219.668,129.554v9.007c0,.722.246,1.082.737,1.082.507,0,1.298-.376,2.373-1.128v2.557c-.953.614-1.717,1.033-2.292,1.255-.576.223-1.179.334-1.809.334-1.797,0-2.856-.706-3.179-2.119-1.781,1.383-3.678,2.073-5.689,2.073-1.475,0-2.703-.487-3.686-1.463-.983-.975-1.475-2.199-1.475-3.674,0-1.336.48-2.529,1.44-3.582.959-1.052,2.322-1.885,4.088-2.499l5.367-1.843v-1.129c0-2.549-1.274-3.823-3.823-3.823-2.289,0-4.515,1.183-6.681,3.547v-4.584c1.628-1.919,3.97-2.879,7.025-2.879,2.288,0,4.124.599,5.506,1.797.461.384.875.895,1.244,1.531.368.638.602,1.275.702,1.912.1.638.149,1.847.149,3.628ZM215.545,138.1v-6.288l-2.811,1.082c-1.428.568-2.438,1.141-3.028,1.717-.592.575-.887,1.294-.887,2.153,0,.875.279,1.59.841,2.143.56.553,1.285.829,2.177.829,1.336,0,2.571-.545,3.708-1.636Z" fill="#fff"/>
      <path d="M230.978,121.101v4.86l.23-.369c2.027-3.271,4.055-4.906,6.081-4.906,1.582,0,3.232.799,4.953,2.396l-2.212,3.686c-1.459-1.382-2.811-2.073-4.054-2.073-1.352,0-2.522.646-3.513,1.936-.991,1.289-1.486,2.817-1.486,4.583v11.08h-4.215v-21.191h4.215Z" fill="#fff"/>
      <path d="M259.887,137.341v4.146c-2.104.783-4.162,1.175-6.173,1.175-3.317,0-5.963-.982-7.936-2.948-1.974-1.965-2.96-4.599-2.96-7.9,0-3.332.959-6.02,2.879-8.062,1.92-2.042,4.446-3.063,7.578-3.063,1.091,0,2.069.104,2.938.311.867.208,1.938.596,3.213,1.164v4.469c-2.119-1.352-4.085-2.027-5.896-2.027-1.889,0-3.44.664-4.653,1.992-1.213,1.329-1.819,3.021-1.819,5.079,0,2.165.656,3.886,1.97,5.16,1.312,1.274,3.082,1.912,5.31,1.912,1.612,0,3.462-.469,5.551-1.405Z" fill="#fff"/>
      <path d="M274.666,121.101h7.933v31.994h-4.192v-11.171c-1.83.491-3.376.736-4.637.736-3.015,0-5.506-1.013-7.475-3.04s-2.953-4.6-2.953-7.717c0-3.302,1.022-5.928,3.067-7.878s4.797-2.925,8.257-2.925ZM278.406,138.285v-13.269h-2.654c-1.816,0-3.028.081-3.636.242-.608.161-1.135.383-1.581.667-.446.283-.854.632-1.224,1.046-1.154,1.304-1.731,2.913-1.731,4.829,0,2.162.65,3.93,1.951,5.302,1.3,1.372,2.981,2.058,5.043,2.058.478,0,.87-.029,1.178-.09.308-.06.984-.262,2.031-.605l.323-.09.3-.09Z" fill="#fff"/>
    </g>
  </g>
  <g id="text5" isolation="isolate">
    <g isolation="isolate">
      <path d="M122.714,94.396h7.437v2.699h-12.361v-.195l1.174-1.385c1.836-2.274,3.298-4.204,4.384-5.789s1.794-2.783,2.125-3.594c.331-.812.497-1.612.497-2.405,0-1.1-.312-1.983-.937-2.649-.625-.667-1.454-1-2.489-1-.783,0-1.555.23-2.314.692-.76.461-1.443,1.111-2.048,1.95v-3.552c1.519-1.239,3.085-1.859,4.698-1.859,1.706,0,3.111.568,4.216,1.706,1.105,1.138,1.657,2.582,1.657,4.335,0,.783-.138,1.62-.413,2.511-.274.891-.762,1.916-1.46,3.076-.699,1.161-1.887,2.743-3.564,4.748l-.601.711Z" fill="#fff"/>
      <path d="M138.687,77.309c1.79,0,3.27.938,4.439,2.817s1.755,4.263,1.755,7.152c0,2.965-.585,5.374-1.755,7.229s-2.687,2.782-4.551,2.782c-1.893,0-3.412-.908-4.559-2.727-1.147-1.817-1.72-4.228-1.72-7.229,0-2.964.592-5.376,1.776-7.236,1.184-1.859,2.722-2.789,4.615-2.789ZM138.715,79.966h-.14c-1.072,0-1.923.66-2.552,1.979-.629,1.319-.944,3.107-.944,5.363,0,2.312.308,4.125.923,5.439s1.463,1.972,2.545,1.972,1.935-.657,2.559-1.972.937-3.1.937-5.355-.301-4.069-.902-5.412c-.602-1.342-1.41-2.014-2.426-2.014Z" fill="#fff"/>
      <path d="M151.926,94.396h7.436v2.699h-12.362v-.195l1.174-1.385c1.838-2.274,3.299-4.204,4.385-5.789s1.795-2.783,2.125-3.594c.33-.812.496-1.612.496-2.405,0-1.1-.312-1.983-.936-2.649-.625-.667-1.455-1-2.49-1-.783,0-1.555.23-2.314.692-.76.461-1.442,1.111-2.048,1.95v-3.552c1.519-1.239,3.085-1.859,4.699-1.859,1.705,0,3.111.568,4.217,1.706,1.104,1.138,1.656,2.582,1.656,4.335,0,.783-.137,1.62-.412,2.511s-.762,1.916-1.461,3.076c-.699,1.161-1.887,2.743-3.564,4.748l-.6.711Z" fill="#fff"/>
      <path d="M163.521,77.56h8.67v2.489h-6.125v4.937c.196-.019.396-.028.602-.028,1.893,0,3.449.576,4.67,1.728,1.222,1.151,1.832,2.617,1.832,4.397,0,1.837-.604,3.33-1.811,4.481-1.208,1.151-2.771,1.727-4.691,1.727-1.585,0-3.123-.382-4.614-1.146v-2.88c1.407.913,2.782,1.37,4.125,1.37,1.174,0,2.16-.343,2.957-1.028.797-.685,1.195-1.526,1.195-2.523,0-1.035-.434-1.899-1.3-2.594-.867-.694-1.949-1.042-3.244-1.042-1.109,0-1.865.093-2.266.279v-10.166Z" fill="#fff"/>
    </g>
  </g>
</svg>