<?xml version="1.0" encoding="UTF-8"?>
<svg id="Layer_1" data-name="Layer 1" xmlns="http://www.w3.org/2000/svg" width="103.967mm" height="50.741mm" viewBox="0 0 294.71 143.834">
  <g id="text3" isolation="isolate">
    <g isolation="isolate">
      <path d="M24.542,11.241h19.731v4.435h-14.749v10.613h14.251v4.459h-14.251v10.813h15.223v4.435h-20.205V11.241Z" fill="#fff"/>
      <path d="M64.728,11.241h4.559v34.805h-9.691c-3.389,0-6.092-1.071-8.11-3.214-2.018-2.143-3.027-5.017-3.027-8.62,0-3.372,1.059-6.146,3.177-8.321s4.821-3.264,8.109-3.264c1.528,0,3.189.323,4.983.972v-12.357ZM64.728,42.159v-14.524c-1.412-.715-2.84-1.071-4.286-1.071-2.259,0-4.057.738-5.394,2.217-1.337,1.479-2.006,3.472-2.006,5.979,0,2.358.582,4.178,1.744,5.456.698.764,1.437,1.279,2.217,1.545s2.184.398,4.21.398h3.513Z" fill="#fff"/>
      <path d="M90.041,46.046v-2.94c-.963,1.055-2.064,1.875-3.301,2.46-1.237.586-2.471.879-3.7.879-1.445,0-2.778-.361-3.999-1.084s-2.143-1.702-2.766-2.939c-.623-1.237-.934-3.293-.934-6.166v-13.13h4.534v13.062c0,2.406.345,4.086,1.034,5.039.689.954,1.897,1.431,3.625,1.431,2.159,0,3.994-1.055,5.506-3.164v-16.368h4.534v22.921h-4.534Z" fill="#fff"/>
      <path d="M118.143,40.689v4.484c-2.275.847-4.501,1.271-6.677,1.271-3.587,0-6.449-1.062-8.583-3.189-2.134-2.125-3.201-4.974-3.201-8.545,0-3.604,1.038-6.511,3.114-8.72,2.076-2.209,4.808-3.313,8.197-3.313,1.179,0,2.238.111,3.176.336.938.225,2.097.644,3.476,1.258v4.834c-2.292-1.462-4.418-2.192-6.378-2.192-2.043,0-3.721.719-5.033,2.154-1.312,1.438-1.968,3.269-1.968,5.494,0,2.342.71,4.202,2.13,5.58,1.42,1.379,3.334,2.068,5.743,2.068,1.744,0,3.745-.507,6.004-1.52Z" fill="#fff"/>
      <path d="M137.701,32.269v9.741c0,.78.265,1.171.797,1.171.548,0,1.404-.407,2.566-1.221v2.766c-1.03.664-1.856,1.117-2.479,1.357s-1.275.361-1.956.361c-1.943,0-3.089-.764-3.438-2.292-1.927,1.495-3.978,2.242-6.153,2.242-1.595,0-2.924-.527-3.986-1.582-1.063-1.055-1.595-2.379-1.595-3.974,0-1.445.519-2.736,1.557-3.874s2.512-2.039,4.422-2.703l5.805-1.993v-1.221c0-2.757-1.378-4.136-4.135-4.136-2.475,0-4.883,1.279-7.225,3.836v-4.957c1.76-2.076,4.293-3.114,7.599-3.114,2.475,0,4.459.647,5.955,1.943.498.415.946.968,1.345,1.656.398.689.651,1.379.76,2.068.108.689.162,1.997.162,3.924ZM133.241,41.512v-6.802l-3.039,1.171c-1.545.614-2.637,1.233-3.276,1.856-.64.622-.959,1.399-.959,2.329,0,.946.303,1.719.909,2.317.606.598,1.391.896,2.354.896,1.445,0,2.782-.59,4.011-1.769Z" fill="#fff"/>
      <path d="M141.862,26.763l8.521-8.371v4.733h7.249v4.086h-7.249v11.218c0,2.62,1.087,3.93,3.263,3.93,1.629,0,3.348-.539,5.158-1.619v4.235c-1.744.979-3.646,1.47-5.705,1.47-2.076,0-3.804-.606-5.183-1.818-.432-.365-.789-.776-1.071-1.233s-.52-1.055-.71-1.794c-.191-.739-.286-2.146-.286-4.223v-10.165h-3.986v-.448Z" fill="#fff"/>
      <path d="M164.408,13.483c.747,0,1.387.258,1.919.772.531.515.797,1.146.797,1.894,0,.73-.266,1.361-.797,1.893s-1.172.798-1.919.798c-.697,0-1.312-.27-1.844-.81s-.797-1.167-.797-1.881c0-.698.266-1.316.797-1.856s1.146-.81,1.844-.81ZM162.166,23.125h4.534v22.921h-4.534v-22.921Z" fill="#fff"/>
      <path d="M184.215,23.075c3.488,0,6.387,1.125,8.695,3.376s3.463,5.078,3.463,8.482c0,3.306-1.171,6.051-3.513,8.234-2.342,2.185-5.29,3.276-8.845,3.276-3.438,0-6.312-1.108-8.62-3.326-2.309-2.217-3.463-4.986-3.463-8.309,0-3.354,1.167-6.149,3.5-8.384,2.334-2.233,5.261-3.351,8.782-3.351ZM183.966,27.161c-2.176,0-3.961.714-5.356,2.143s-2.093,3.247-2.093,5.456c0,2.192.714,3.982,2.143,5.369s3.264,2.08,5.506,2.08c2.226,0,4.049-.701,5.469-2.105,1.42-1.403,2.13-3.201,2.13-5.394,0-2.176-.739-3.978-2.217-5.406-1.479-1.429-3.339-2.143-5.581-2.143Z" fill="#fff"/>
      <path d="M205.94,23.125v2.915c2.026-2.242,4.326-3.363,6.901-3.363,1.428,0,2.757.369,3.986,1.108,1.229.739,2.163,1.753,2.803,3.039.639,1.288.959,3.326.959,6.117v13.104h-4.534v-13.055c0-2.343-.357-4.016-1.071-5.021-.715-1.005-1.91-1.508-3.588-1.508-2.143,0-3.961,1.071-5.456,3.214v16.369h-4.634v-22.921h4.634Z" fill="#fff"/>
      <path d="M271.713,37.974v5.481c-3.654,1.992-7.873,2.989-12.656,2.989-3.887,0-7.184-.78-9.891-2.342-2.708-1.562-4.851-3.712-6.428-6.453-1.578-2.74-2.367-5.705-2.367-8.894,0-5.066,1.807-9.326,5.419-12.781,3.612-3.454,8.067-5.182,13.366-5.182,3.654,0,7.715.955,12.183,2.864v5.356c-4.069-2.325-8.047-3.487-11.934-3.487-3.986,0-7.296,1.258-9.928,3.774-2.633,2.517-3.949,5.668-3.949,9.455,0,3.82,1.296,6.959,3.887,9.417s5.904,3.688,9.94,3.688c4.219,0,8.338-1.296,12.357-3.887Z" fill="#fff"/>
    </g>
  </g>
  <g id="text4" isolation="isolate">
    <g isolation="isolate">
      <path d="M9.622,99.694h4.152v25.226h13.059v3.778H9.622v-29.004Z" fill="#fff"/>
      <path d="M42.115,128.698v-2.45c-.803.879-1.72,1.562-2.751,2.05-1.031.488-2.059.732-3.083.732-1.205,0-2.315-.301-3.333-.903-1.017-.602-1.786-1.418-2.305-2.449s-.778-2.744-.778-5.139v-10.941h3.779v10.886c0,2.005.287,3.404.861,4.199s1.581,1.192,3.021,1.192c1.799,0,3.329-.879,4.588-2.637v-13.641h3.778v19.101h-3.778Z" fill="#fff"/>
      <path d="M63.955,99.694h3.799v29.004h-8.076c-2.824,0-5.076-.893-6.758-2.679-1.682-1.785-2.522-4.18-2.522-7.183,0-2.81.882-5.121,2.647-6.935s4.018-2.72,6.758-2.72c1.273,0,2.658.27,4.152.81v-10.298ZM63.955,125.459v-12.104c-1.177-.595-2.367-.893-3.571-.893-1.883,0-3.381.616-4.495,1.848-1.114,1.232-1.671,2.893-1.671,4.982,0,1.966.484,3.481,1.454,4.547.581.637,1.197,1.066,1.848,1.287.65.222,1.82.332,3.509.332h2.927Z" fill="#fff"/>
      <path d="M96.755,109.598h4.052l-8.438,19.433h-1.206l-5.647-13.308-5.578,13.308h-1.227l-8.507-19.433h4.058l5.004,11.585,4.878-11.585h2.802l4.818,11.585,4.99-11.585Z" fill="#fff"/>
      <path d="M105.416,101.563c.623,0,1.155.215,1.599.644.443.43.665.955.665,1.578,0,.609-.222,1.136-.665,1.578-.443.443-.976.664-1.599.664-.582,0-1.094-.225-1.537-.675-.443-.449-.664-.972-.664-1.567,0-.581.221-1.097.664-1.547.443-.449.955-.675,1.537-.675ZM103.548,109.598h3.779v19.101h-3.779v-19.101Z" fill="#fff"/>
      <path d="M111.811,116.2c0-2.035.744-3.645,2.231-4.827,1.488-1.184,3.52-1.775,6.094-1.775h7.869v2.948h-3.862c.748.761,1.267,1.453,1.557,2.076.291.623.436,1.336.436,2.139,0,.996-.284,1.976-.851,2.938-.568.962-1.298,1.699-2.19,2.211-.893.513-2.356.921-4.391,1.225-1.426.208-2.138.699-2.138,1.475,0,.443.266.807.799,1.09.533.284,1.498.578,2.896.882,2.339.513,3.844.914,4.516,1.205.671.29,1.277.705,1.817,1.245.913.914,1.37,2.062,1.37,3.446,0,1.813-.807,3.26-2.419,4.34-1.612,1.079-3.768,1.619-6.467,1.619-2.727,0-4.903-.544-6.53-1.63-1.626-1.087-2.439-2.543-2.439-4.37,0-2.589,1.599-4.256,4.796-5.004-1.273-.816-1.91-1.626-1.91-2.429,0-.609.273-1.163.82-1.661.546-.498,1.284-.865,2.211-1.101-2.81-1.245-4.214-3.26-4.214-6.041ZM118.018,129.591c-1.273,0-2.315.271-3.125.81-.81.54-1.215,1.232-1.215,2.076,0,1.966,1.772,2.948,5.315,2.948,1.675,0,2.972-.246,3.893-.737.92-.491,1.38-1.187,1.38-2.086,0-.886-.581-1.609-1.744-2.17s-2.665-.841-4.505-.841ZM118.911,112.878c-1.024,0-1.896.346-2.616,1.038-.72.692-1.08,1.522-1.08,2.491,0,.983.353,1.796,1.059,2.439.706.644,1.599.966,2.678.966,1.066,0,1.955-.329,2.668-.986s1.069-1.478,1.069-2.46c0-.997-.36-1.827-1.08-2.492-.72-.664-1.62-.996-2.699-.996Z" fill="#fff"/>
      <path d="M148.269,99.528h2.919l13.004,29.17h-4.25l-3.865-8.596h-12.374l-3.624,8.596h-4.268l12.458-29.17ZM154.37,116.407l-4.68-10.505-4.339,10.505h9.019Z" fill="#fff"/>
      <path d="M170.898,109.598v4.381l.208-.332c1.827-2.948,3.654-4.423,5.48-4.423,1.426,0,2.914.72,4.464,2.159l-1.993,3.322c-1.314-1.246-2.532-1.869-3.653-1.869-1.219,0-2.273.582-3.167,1.744-.893,1.163-1.339,2.54-1.339,4.132v9.986h-3.799v-19.101h3.799Z" fill="#fff"/>
      <path d="M183.688,99.694h3.778v29.004h-3.778v-29.004ZM196.122,109.598h4.486l-8.149,9.343,9.811,9.758h-5.069l-9.567-9.747,8.489-9.354Z" fill="#fff"/>
      <path d="M219.065,119.48h-13.433c.097,1.826.709,3.28,1.838,4.359,1.128,1.08,2.584,1.619,4.37,1.619,2.491,0,4.789-.774,6.893-2.325v3.696c-1.162.775-2.314,1.328-3.457,1.66-1.142.333-2.48.499-4.017.499-2.104,0-3.807-.437-5.107-1.309-1.302-.872-2.343-2.045-3.125-3.519-.782-1.475-1.173-3.18-1.173-5.118,0-2.906.823-5.27,2.471-7.09,1.646-1.82,3.785-2.73,6.415-2.73,2.533,0,4.554.886,6.062,2.658,1.509,1.771,2.263,4.146,2.263,7.121v.478ZM205.716,117.217h9.612c-.097-1.508-.547-2.671-1.349-3.487-.804-.816-1.883-1.226-3.239-1.226s-2.468.409-3.332,1.226c-.865.816-1.43,1.979-1.692,3.487Z" fill="#fff"/>
      <path d="M238.809,114.829v13.869h-3.799v-10.63c0-2.118-.284-3.595-.852-4.433-.567-.837-1.557-1.256-2.969-1.256-.789,0-1.513.18-2.17.54-.657.359-1.408.996-2.252,1.909v13.869h-3.779v-19.101h3.779v2.512c1.924-1.923,3.806-2.886,5.646-2.886,2.423,0,4.298,1.149,5.627,3.446,2.021-2.325,4.132-3.487,6.332-3.487,1.854,0,3.381.678,4.578,2.034s1.796,3.426,1.796,6.208v11.273h-3.778v-11.315c0-1.591-.326-2.81-.977-3.653-.65-.845-1.585-1.267-2.803-1.267-1.564,0-3.024.789-4.381,2.366Z" fill="#fff"/>
      <path d="M267.938,117.217v8.118c0,.65.221.976.664.976.457,0,1.17-.339,2.139-1.018v2.305c-.858.554-1.547.932-2.066,1.132-.519.2-1.062.301-1.629.301-1.62,0-2.575-.637-2.865-1.91-1.606,1.246-3.315,1.869-5.129,1.869-1.328,0-2.436-.439-3.321-1.318s-1.329-1.983-1.329-3.312c0-1.204.433-2.28,1.298-3.229s2.094-1.699,3.686-2.253l4.837-1.661v-1.017c0-2.298-1.148-3.447-3.446-3.447-2.062,0-4.069,1.066-6.021,3.197v-4.131c1.467-1.73,3.577-2.596,6.332-2.596,2.062,0,3.716.54,4.962,1.62.415.346.789.806,1.121,1.38.332.575.543,1.149.634,1.724.09.574.135,1.664.135,3.27ZM264.221,124.92v-5.668l-2.533.976c-1.287.513-2.197,1.027-2.729,1.547-.533.519-.8,1.166-.8,1.941,0,.789.253,1.433.758,1.931.506.498,1.159.747,1.962.747,1.204,0,2.318-.491,3.343-1.474Z" fill="#fff"/>
      <path d="M278.132,109.598v4.381l.208-.332c1.827-2.948,3.654-4.423,5.48-4.423,1.426,0,2.914.72,4.464,2.159l-1.993,3.322c-1.314-1.246-2.532-1.869-3.653-1.869-1.219,0-2.273.582-3.167,1.744-.893,1.163-1.339,2.54-1.339,4.132v9.986h-3.799v-19.101h3.799Z" fill="#fff"/>
    </g>
  </g>
  <g id="text5" isolation="isolate">
    <g isolation="isolate">
      <path d="M124.191,81.802h7.437v2.699h-12.361v-.195l1.174-1.385c1.836-2.274,3.298-4.204,4.384-5.789s1.794-2.783,2.125-3.594c.331-.812.497-1.612.497-2.405,0-1.1-.312-1.983-.937-2.649-.625-.667-1.454-1-2.489-1-.783,0-1.555.23-2.314.692-.76.461-1.443,1.111-2.048,1.95v-3.552c1.519-1.239,3.085-1.859,4.698-1.859,1.706,0,3.111.568,4.216,1.706,1.105,1.138,1.657,2.582,1.657,4.335,0,.783-.138,1.62-.413,2.511-.274.891-.762,1.916-1.46,3.076-.699,1.161-1.887,2.743-3.564,4.748l-.601.711Z" fill="#fff"/>
      <path d="M140.165,64.715c1.789,0,3.27.938,4.439,2.817s1.755,4.263,1.755,7.152c0,2.965-.585,5.374-1.755,7.229s-2.688,2.782-4.552,2.782c-1.893,0-3.412-.908-4.559-2.727-1.147-1.817-1.72-4.228-1.72-7.229,0-2.964.592-5.376,1.776-7.236,1.184-1.859,2.722-2.789,4.615-2.789ZM140.192,67.371h-.14c-1.072,0-1.923.66-2.552,1.979-.629,1.319-.944,3.107-.944,5.363,0,2.312.308,4.125.923,5.439s1.463,1.972,2.545,1.972,1.935-.657,2.56-1.972c.624-1.314.937-3.1.937-5.355s-.301-4.069-.901-5.412c-.602-1.342-1.41-2.014-2.427-2.014Z" fill="#fff"/>
      <path d="M153.403,81.802h7.436v2.699h-12.361v-.195l1.174-1.385c1.838-2.274,3.299-4.204,4.385-5.789s1.795-2.783,2.125-3.594c.33-.812.496-1.612.496-2.405,0-1.1-.312-1.983-.936-2.649-.625-.667-1.455-1-2.49-1-.783,0-1.555.23-2.314.692-.76.461-1.442,1.111-2.048,1.95v-3.552c1.519-1.239,3.085-1.859,4.698-1.859,1.705,0,3.111.568,4.217,1.706,1.104,1.138,1.656,2.582,1.656,4.335,0,.783-.137,1.62-.412,2.511s-.762,1.916-1.461,3.076c-.699,1.161-1.887,2.743-3.564,4.748l-.6.711Z" fill="#fff"/>
      <path d="M164.998,64.966h8.67v2.489h-6.125v4.937c.196-.019.396-.028.602-.028,1.893,0,3.449.576,4.67,1.728,1.222,1.151,1.832,2.617,1.832,4.397,0,1.837-.604,3.33-1.811,4.481-1.208,1.151-2.771,1.727-4.691,1.727-1.585,0-3.123-.382-4.614-1.146v-2.88c1.407.913,2.782,1.37,4.125,1.37,1.174,0,2.16-.343,2.957-1.028.797-.685,1.195-1.526,1.195-2.523,0-1.035-.434-1.899-1.3-2.594-.867-.694-1.949-1.042-3.244-1.042-1.109,0-1.865.093-2.266.279v-10.166Z" fill="#fff"/>
    </g>
  </g>
</svg>