<?xml version="1.0" encoding="UTF-8"?>
<svg id="Layer_1" data-name="Layer 1" xmlns="http://www.w3.org/2000/svg" width="109.811mm" height="51.359mm" viewBox="0 0 311.276 145.584">
  <g id="text3" isolation="isolate">
    <g isolation="isolate">
      <path d="M37.807,12.516h4.983v34.805h-4.983v-15.147h-19.558v15.147h-4.982V12.516h4.982v15.048h19.558v-15.048Z" fill="#fff"/>
      <path d="M69.373,36.259h-16.12c.116,2.192.851,3.936,2.205,5.231,1.354,1.296,3.102,1.943,5.244,1.943,2.99,0,5.747-.93,8.271-2.79v4.435c-1.395.93-2.778,1.594-4.148,1.993-1.371.398-2.978.598-4.821.598-2.525,0-4.568-.523-6.129-1.569-1.562-1.046-2.812-2.454-3.75-4.223-.938-1.769-1.408-3.815-1.408-6.141,0-3.488.988-6.324,2.965-8.508,1.976-2.184,4.542-3.276,7.698-3.276,3.04,0,5.464,1.063,7.275,3.189,1.81,2.126,2.716,4.975,2.716,8.545v.573ZM53.353,33.543h11.535c-.116-1.81-.656-3.206-1.619-4.186-.963-.98-2.259-1.47-3.887-1.47s-2.961.49-3.999,1.47c-1.038.98-1.715,2.375-2.031,4.186Z" fill="#fff"/>
      <path d="M88.681,33.543v9.741c0,.781.265,1.171.797,1.171.548,0,1.404-.407,2.566-1.221v2.766c-1.03.665-1.856,1.117-2.479,1.358-.623.24-1.275.361-1.956.361-1.943,0-3.089-.764-3.438-2.292-1.927,1.495-3.978,2.242-6.153,2.242-1.595,0-2.924-.527-3.986-1.582-1.063-1.054-1.595-2.379-1.595-3.974,0-1.445.519-2.736,1.557-3.874s2.512-2.039,4.422-2.703l5.805-1.993v-1.221c0-2.757-1.378-4.136-4.135-4.136-2.475,0-4.883,1.279-7.225,3.836v-4.958c1.76-2.076,4.293-3.114,7.599-3.114,2.475,0,4.459.647,5.955,1.943.498.415.946.968,1.345,1.657.398.689.651,1.379.76,2.068.108.689.162,1.997.162,3.924ZM84.221,42.787v-6.802l-3.039,1.171c-1.545.615-2.637,1.233-3.276,1.856-.64.623-.959,1.399-.959,2.329,0,.947.303,1.719.909,2.317.606.598,1.391.896,2.354.896,1.445,0,2.782-.589,4.011-1.769Z" fill="#fff"/>
      <path d="M111.353,12.516h4.559v34.805h-9.691c-3.389,0-6.092-1.071-8.11-3.214-2.018-2.143-3.027-5.016-3.027-8.62,0-3.372,1.059-6.146,3.177-8.321s4.821-3.264,8.109-3.264c1.528,0,3.189.324,4.983.972v-12.357ZM111.353,43.434v-14.524c-1.412-.714-2.84-1.071-4.286-1.071-2.259,0-4.057.739-5.394,2.217-1.337,1.479-2.006,3.471-2.006,5.979,0,2.359.582,4.178,1.744,5.456.698.764,1.437,1.279,2.217,1.545s2.184.398,4.21.398h3.513Z" fill="#fff"/>
      <path d="M147.204,24.35c3.488,0,6.387,1.125,8.696,3.376,2.309,2.251,3.463,5.079,3.463,8.483,0,3.306-1.172,6.05-3.514,8.234s-5.29,3.276-8.844,3.276c-3.439,0-6.312-1.108-8.621-3.326-2.309-2.217-3.463-4.987-3.463-8.309,0-3.354,1.167-6.149,3.5-8.383,2.333-2.234,5.261-3.351,8.782-3.351ZM146.954,28.436c-2.176,0-3.961.714-5.355,2.143-1.396,1.429-2.093,3.248-2.093,5.456,0,2.192.714,3.982,2.142,5.369,1.43,1.387,3.264,2.08,5.506,2.08,2.227,0,4.049-.701,5.469-2.105,1.42-1.403,2.131-3.202,2.131-5.394,0-2.176-.74-3.978-2.217-5.406-1.479-1.428-3.34-2.143-5.583-2.143Z" fill="#fff"/>
      <path d="M164.919,24.4v-1.37c0-3.688.784-6.436,2.354-8.247,1.569-1.81,3.45-2.715,5.643-2.715.947,0,2.068.149,3.363.448v4.435c-.73-.266-1.429-.398-2.093-.398-1.777,0-3.011.473-3.699,1.42-.689.947-1.034,2.633-1.034,5.058v1.37h4.086v4.086h-4.086v18.835h-4.534v-18.835h-3.289v-4.086h3.289Z" fill="#fff"/>
      <path d="M191.95,12.516h4.982v30.271h15.671v4.534h-20.653V12.516Z" fill="#fff"/>
      <path d="M230.741,33.543v9.741c0,.781.266,1.171.797,1.171.548,0,1.403-.407,2.566-1.221v2.766c-1.03.665-1.856,1.117-2.479,1.358-.623.24-1.275.361-1.956.361-1.943,0-3.09-.764-3.438-2.292-1.927,1.495-3.978,2.242-6.153,2.242-1.595,0-2.924-.527-3.986-1.582-1.063-1.054-1.595-2.379-1.595-3.974,0-1.445.52-2.736,1.558-3.874,1.037-1.138,2.512-2.039,4.422-2.703l5.805-1.993v-1.221c0-2.757-1.379-4.136-4.136-4.136-2.475,0-4.883,1.279-7.225,3.836v-4.958c1.76-2.076,4.293-3.114,7.599-3.114,2.475,0,4.46.647,5.954,1.943.499.415.947.968,1.346,1.657.398.689.651,1.379.76,2.068.107.689.162,1.997.162,3.924ZM226.281,42.787v-6.802l-3.039,1.171c-1.545.615-2.637,1.233-3.276,1.856-.64.623-.959,1.399-.959,2.329,0,.947.303,1.719.909,2.317.606.598,1.391.896,2.354.896,1.445,0,2.781-.589,4.011-1.769Z" fill="#fff"/>
      <path d="M234.901,28.038l8.521-8.371v4.733h7.25v4.086h-7.25v11.218c0,2.62,1.088,3.93,3.264,3.93,1.628,0,3.347-.54,5.157-1.62v4.235c-1.744.98-3.646,1.47-5.705,1.47-2.076,0-3.804-.606-5.183-1.818-.432-.365-.789-.776-1.071-1.233-.282-.457-.519-1.055-.71-1.794-.19-.739-.286-2.146-.286-4.223v-10.165h-3.986v-.448Z" fill="#fff"/>
      <path d="M255.007,12.516h4.534v14.898c1.894-2.309,4.244-3.463,7.051-3.463,1.528,0,2.898.382,4.11,1.146,1.213.764,2.114,1.819,2.703,3.164.59,1.345.885,3.347.885,6.004v13.055h-4.534v-14.176c0-1.678-.411-3.027-1.233-4.049s-1.906-1.532-3.251-1.532c-.997,0-1.936.258-2.815.772-.881.515-1.853,1.37-2.915,2.566v16.418h-4.534V12.516Z" fill="#fff"/>
      <path d="M300.15,36.259h-16.119c.116,2.192.852,3.936,2.205,5.231,1.354,1.296,3.102,1.943,5.244,1.943,2.99,0,5.747-.93,8.271-2.79v4.435c-1.396.93-2.777,1.594-4.148,1.993-1.37.398-2.977.598-4.82.598-2.525,0-4.568-.523-6.129-1.569-1.562-1.046-2.812-2.454-3.75-4.223-.938-1.769-1.407-3.815-1.407-6.141,0-3.488.988-6.324,2.965-8.508,1.977-2.184,4.542-3.276,7.698-3.276,3.039,0,5.465,1.063,7.274,3.189,1.811,2.126,2.716,4.975,2.716,8.545v.573ZM284.131,33.543h11.535c-.116-1.81-.656-3.206-1.619-4.186-.964-.98-2.259-1.47-3.887-1.47s-2.961.49-3.999,1.47-1.715,2.375-2.03,4.186Z" fill="#fff"/>
    </g>
  </g>
  <g id="text4" isolation="isolate">
    <g isolation="isolate">
      <path d="M29.597,102.516c4.182,0,7.665,1.324,10.447,3.973,2.782,2.648,4.173,5.968,4.173,9.96s-1.404,7.296-4.212,9.911c-2.808,2.616-6.348,3.924-10.621,3.924-4.08,0-7.479-1.308-10.196-3.924-2.718-2.615-4.076-5.894-4.076-9.834,0-4.043,1.368-7.389,4.105-10.037,2.737-2.648,6.196-3.973,10.379-3.973ZM29.752,106.197c-3.098,0-5.644.969-7.637,2.907-1.994,1.938-2.991,4.411-2.991,7.421,0,2.92,1,5.349,3,7.286s4.504,2.906,7.512,2.906,5.54-.988,7.56-2.964c2.02-1.977,3.03-4.438,3.03-7.383,0-2.868-1.01-5.281-3.03-7.238-2.02-1.957-4.501-2.936-7.444-2.936Z" fill="#fff"/>
      <path d="M47.628,128.694v-3.798c.995.698,2.012,1.263,3.052,1.695,1.04.434,1.915.649,2.625.649.736,0,1.369-.181,1.899-.542.53-.362.794-.795.794-1.299,0-.517-.171-.946-.513-1.288-.342-.343-1.082-.837-2.219-1.482-2.274-1.267-3.763-2.348-4.467-3.246-.704-.897-1.056-1.876-1.056-2.936,0-1.369.533-2.486,1.599-3.353,1.065-.865,2.438-1.298,4.118-1.298,1.744,0,3.533.491,5.367,1.473v3.487c-2.092-1.266-3.804-1.898-5.135-1.898-.685,0-1.237.146-1.657.437-.42.291-.63.676-.63,1.154,0,.414.19.809.57,1.184.38.375,1.049.827,2.005,1.356l1.26.717c2.972,1.679,4.458,3.538,4.458,5.579,0,1.459-.571,2.657-1.715,3.594-1.143.936-2.613,1.403-4.408,1.403-1.06,0-2.002-.112-2.829-.339-.827-.226-1.867-.643-3.12-1.25Z" fill="#fff"/>
      <path d="M77.14,125.808v3.488c-1.77.658-3.501.987-5.193.987-2.79,0-5.016-.826-6.675-2.479-1.66-1.653-2.49-3.869-2.49-6.646,0-2.804.808-5.064,2.422-6.782s3.74-2.577,6.375-2.577c.917,0,1.741.087,2.471.262.73.174,1.631.5,2.703.979v3.759c-1.783-1.137-3.437-1.705-4.96-1.705-1.589,0-2.894.559-3.914,1.676-1.021,1.118-1.531,2.542-1.531,4.273,0,1.821.553,3.268,1.657,4.34s2.593,1.608,4.466,1.608c1.356,0,2.913-.394,4.67-1.182Z" fill="#fff"/>
      <path d="M92.351,119.258v7.577c0,.606.207.91.62.91.426,0,1.092-.316,1.996-.949v2.15c-.801.518-1.444.869-1.928,1.057-.484.187-.992.28-1.521.28-1.512,0-2.403-.594-2.674-1.782-1.499,1.163-3.094,1.744-4.786,1.744-1.24,0-2.274-.41-3.1-1.23-.827-.82-1.24-1.851-1.24-3.091,0-1.124.403-2.128,1.211-3.014.807-.885,1.954-1.585,3.439-2.103l4.515-1.55v-.949c0-2.145-1.073-3.217-3.217-3.217-1.925,0-3.798.995-5.62,2.984v-3.856c1.369-1.614,3.339-2.422,5.91-2.422,1.925,0,3.469.504,4.631,1.511.388.323.736.753,1.046,1.289s.507,1.072.591,1.608.126,1.554.126,3.052ZM88.883,126.447v-5.29l-2.364.91c-1.201.479-2.051.959-2.548,1.444-.498.484-.746,1.088-.746,1.812,0,.736.235,1.337.707,1.802s1.082.697,1.831.697c1.124,0,2.164-.458,3.12-1.375Z" fill="#fff"/>
      <path d="M101.865,112.146v4.089l.194-.311c1.705-2.751,3.41-4.127,5.116-4.127,1.33,0,2.719.672,4.166,2.015l-1.86,3.101c-1.228-1.162-2.364-1.744-3.41-1.744-1.137,0-2.122.543-2.955,1.628-.833,1.085-1.25,2.371-1.25,3.856v9.32h-3.546v-17.827h3.546Z" fill="#fff"/>
      <path d="M144.399,102.903h3.875v27.07h-3.875v-11.781h-15.211v11.781h-3.876v-27.07h3.876v11.704h15.211v-11.704Z" fill="#fff"/>
      <path d="M164.959,119.258v7.577c0,.606.206.91.62.91.426,0,1.091-.316,1.995-.949v2.15c-.801.518-1.443.869-1.928,1.057-.484.187-.991.28-1.521.28-1.511,0-2.402-.594-2.674-1.782-1.499,1.163-3.094,1.744-4.786,1.744-1.24,0-2.274-.41-3.101-1.23-.827-.82-1.24-1.851-1.24-3.091,0-1.124.403-2.128,1.211-3.014.808-.885,1.954-1.585,3.44-2.103l4.515-1.55v-.949c0-2.145-1.072-3.217-3.217-3.217-1.925,0-3.798.995-5.62,2.984v-3.856c1.369-1.614,3.34-2.422,5.911-2.422,1.925,0,3.468.504,4.631,1.511.388.323.736.753,1.046,1.289.311.536.507,1.072.592,1.608.084.536.126,1.554.126,3.052ZM161.49,126.447v-5.29l-2.364.91c-1.201.479-2.051.959-2.548,1.444-.498.484-.746,1.088-.746,1.812,0,.736.235,1.337.707,1.802s1.082.697,1.831.697c1.124,0,2.164-.458,3.12-1.375Z" fill="#fff"/>
      <path d="M169.822,128.694v-3.798c.994.698,2.012,1.263,3.052,1.695,1.04.434,1.915.649,2.626.649.736,0,1.369-.181,1.898-.542.529-.362.795-.795.795-1.299,0-.517-.172-.946-.514-1.288s-1.082-.837-2.219-1.482c-2.273-1.267-3.763-2.348-4.467-3.246-.704-.897-1.056-1.876-1.056-2.936,0-1.369.532-2.486,1.599-3.353,1.065-.865,2.438-1.298,4.117-1.298,1.744,0,3.533.491,5.368,1.473v3.487c-2.093-1.266-3.805-1.898-5.136-1.898-.685,0-1.236.146-1.656.437s-.63.676-.63,1.154c0,.414.19.809.57,1.184.381.375,1.049.827,2.005,1.356l1.26.717c2.973,1.679,4.459,3.538,4.459,5.579,0,1.459-.572,2.657-1.715,3.594-1.144.936-2.613,1.403-4.409,1.403-1.059,0-2.002-.112-2.829-.339-.826-.226-1.866-.643-3.119-1.25Z" fill="#fff"/>
      <path d="M185.092,128.694v-3.798c.994.698,2.012,1.263,3.052,1.695,1.04.434,1.915.649,2.626.649.736,0,1.369-.181,1.898-.542.529-.362.795-.795.795-1.299,0-.517-.172-.946-.514-1.288s-1.082-.837-2.219-1.482c-2.273-1.267-3.763-2.348-4.467-3.246-.704-.897-1.056-1.876-1.056-2.936,0-1.369.532-2.486,1.599-3.353,1.065-.865,2.438-1.298,4.117-1.298,1.744,0,3.533.491,5.368,1.473v3.487c-2.093-1.266-3.805-1.898-5.136-1.898-.685,0-1.236.146-1.656.437s-.63.676-.63,1.154c0,.414.19.809.57,1.184.381.375,1.049.827,2.005,1.356l1.26.717c2.973,1.679,4.459,3.538,4.459,5.579,0,1.459-.572,2.657-1.715,3.594-1.144.936-2.613,1.403-4.409,1.403-1.059,0-2.002-.112-2.829-.339-.826-.226-1.866-.643-3.119-1.25Z" fill="#fff"/>
      <path d="M216.425,121.37h-12.537c.091,1.705.662,3.062,1.715,4.069s2.413,1.512,4.079,1.512c2.325,0,4.47-.724,6.434-2.171v3.449c-1.085.724-2.161,1.24-3.227,1.551-1.065.31-2.315.465-3.75.465-1.963,0-3.553-.407-4.767-1.221-1.214-.814-2.187-1.909-2.916-3.285-.73-1.375-1.095-2.968-1.095-4.776,0-2.713.769-4.918,2.306-6.617,1.537-1.698,3.533-2.548,5.987-2.548,2.364,0,4.25.826,5.658,2.48,1.408,1.653,2.112,3.869,2.112,6.646v.445ZM203.965,119.258h8.973c-.091-1.408-.511-2.493-1.26-3.255-.75-.763-1.757-1.144-3.023-1.144s-2.303.381-3.109,1.144c-.808.762-1.334,1.847-1.58,3.255Z" fill="#fff"/>
      <path d="M220.32,102.903h3.526v27.07h-3.526v-27.07Z" fill="#fff"/>
      <path d="M228.788,102.903h3.526v10.521c1.524-1.11,3.152-1.666,4.884-1.666,2.26,0,4.107.853,5.542,2.558,1.434,1.705,2.15,3.896,2.15,6.569,0,2.868-.855,5.151-2.567,6.85-1.712,1.699-4.002,2.548-6.869,2.548-1.15,0-2.361-.122-3.634-.368-1.272-.245-2.283-.555-3.032-.93v-26.082ZM232.314,116.797v9.65c1.202.361,2.436.542,3.701.542,1.563,0,2.839-.555,3.827-1.666s1.482-2.539,1.482-4.282c0-1.771-.462-3.21-1.386-4.321s-2.128-1.667-3.613-1.667c-1.318,0-2.655.582-4.012,1.744Z" fill="#fff"/>
      <path d="M263.977,121.37h-12.537c.091,1.705.662,3.062,1.715,4.069s2.413,1.512,4.079,1.512c2.325,0,4.47-.724,6.434-2.171v3.449c-1.085.724-2.161,1.24-3.227,1.551-1.065.31-2.315.465-3.75.465-1.963,0-3.553-.407-4.767-1.221-1.214-.814-2.187-1.909-2.916-3.285-.73-1.375-1.095-2.968-1.095-4.776,0-2.713.769-4.918,2.306-6.617,1.537-1.698,3.533-2.548,5.987-2.548,2.364,0,4.25.826,5.658,2.48,1.408,1.653,2.112,3.869,2.112,6.646v.445ZM251.517,119.258h8.973c-.091-1.408-.511-2.493-1.26-3.255-.75-.763-1.757-1.144-3.023-1.144s-2.303.381-3.109,1.144c-.808.762-1.334,1.847-1.58,3.255Z" fill="#fff"/>
      <path d="M271.573,112.146v4.089l.193-.311c1.706-2.751,3.411-4.127,5.116-4.127,1.33,0,2.719.672,4.166,2.015l-1.86,3.101c-1.228-1.162-2.364-1.744-3.41-1.744-1.137,0-2.122.543-2.955,1.628s-1.25,2.371-1.25,3.856v9.32h-3.546v-17.827h3.546Z" fill="#fff"/>
      <path d="M282.599,118.309c0-1.899.694-3.401,2.083-4.506s3.284-1.656,5.688-1.656h7.344v2.752h-3.604c.697.71,1.182,1.355,1.453,1.938.271.581.406,1.247.406,1.996,0,.93-.265,1.844-.794,2.741-.53.898-1.211,1.586-2.045,2.063-.833.479-2.199.859-4.098,1.144-1.331.194-1.996.652-1.996,1.376,0,.414.249.753.746,1.018s1.398.539,2.703.823c2.183.479,3.588.853,4.215,1.124.626.271,1.191.659,1.695,1.162.853.854,1.279,1.925,1.279,3.217,0,1.692-.753,3.043-2.258,4.05-1.505,1.008-3.518,1.512-6.036,1.512-2.545,0-4.576-.507-6.095-1.521-1.518-1.015-2.276-2.374-2.276-4.079,0-2.416,1.492-3.973,4.477-4.67-1.189-.763-1.783-1.519-1.783-2.268,0-.568.255-1.085.766-1.55.51-.466,1.198-.808,2.063-1.027-2.622-1.163-3.934-3.042-3.934-5.639ZM288.393,130.807c-1.188,0-2.16.252-2.916.756s-1.134,1.149-1.134,1.938c0,1.835,1.653,2.752,4.961,2.752,1.562,0,2.773-.229,3.633-.688.859-.459,1.289-1.108,1.289-1.948,0-.826-.543-1.501-1.628-2.024s-2.487-.785-4.205-.785ZM289.226,115.208c-.956,0-1.77.323-2.441.969-.672.646-1.008,1.421-1.008,2.325,0,.918.33,1.677.988,2.277.659.601,1.492.9,2.5.9.994,0,1.824-.307,2.49-.92.665-.613.998-1.379.998-2.296,0-.931-.337-1.706-1.008-2.326-.672-.62-1.512-.93-2.52-.93Z" fill="#fff"/>
    </g>
  </g>
  <g id="text5" isolation="isolate">
    <g isolation="isolate">
      <path d="M132.474,83.077h7.437v2.699h-12.361v-.195l1.174-1.385c1.836-2.274,3.298-4.204,4.384-5.789s1.794-2.783,2.125-3.594c.331-.812.497-1.612.497-2.405,0-1.1-.312-1.983-.937-2.649-.625-.667-1.454-1-2.489-1-.783,0-1.555.23-2.314.692-.76.461-1.443,1.111-2.048,1.95v-3.552c1.519-1.239,3.085-1.859,4.698-1.859,1.706,0,3.111.568,4.216,1.706,1.105,1.138,1.657,2.582,1.657,4.335,0,.783-.138,1.62-.413,2.511-.274.891-.762,1.916-1.46,3.076-.699,1.161-1.887,2.743-3.564,4.748l-.601.711Z" fill="#fff"/>
      <path d="M148.447,65.99c1.79,0,3.27.938,4.439,2.817s1.755,4.263,1.755,7.152c0,2.965-.585,5.374-1.755,7.229s-2.687,2.782-4.551,2.782c-1.893,0-3.412-.908-4.559-2.727-1.147-1.817-1.72-4.228-1.72-7.229,0-2.964.592-5.376,1.776-7.236,1.184-1.859,2.722-2.789,4.615-2.789ZM148.475,68.646h-.14c-1.072,0-1.923.66-2.552,1.979-.629,1.319-.944,3.107-.944,5.363,0,2.312.308,4.125.923,5.439s1.463,1.972,2.545,1.972,1.935-.657,2.559-1.972c.625-1.314.938-3.1.938-5.355s-.301-4.069-.902-5.412c-.602-1.342-1.41-2.014-2.426-2.014Z" fill="#fff"/>
      <path d="M161.686,83.077h7.436v2.699h-12.361v-.195l1.174-1.385c1.838-2.274,3.299-4.204,4.385-5.789s1.795-2.783,2.125-3.594c.33-.812.496-1.612.496-2.405,0-1.1-.312-1.983-.936-2.649-.625-.667-1.455-1-2.49-1-.783,0-1.555.23-2.314.692-.76.461-1.442,1.111-2.048,1.95v-3.552c1.519-1.239,3.085-1.859,4.698-1.859,1.705,0,3.111.568,4.217,1.706,1.104,1.138,1.656,2.582,1.656,4.335,0,.783-.137,1.62-.412,2.511s-.762,1.916-1.461,3.076c-.699,1.161-1.887,2.743-3.564,4.748l-.6.711Z" fill="#fff"/>
      <path d="M173.281,66.241h8.67v2.489h-6.125v4.937c.196-.019.396-.028.602-.028,1.893,0,3.449.576,4.67,1.728,1.222,1.151,1.832,2.617,1.832,4.397,0,1.837-.604,3.33-1.811,4.481-1.208,1.151-2.771,1.727-4.691,1.727-1.585,0-3.123-.382-4.614-1.146v-2.88c1.407.913,2.782,1.37,4.125,1.37,1.174,0,2.16-.343,2.957-1.028.797-.685,1.195-1.526,1.195-2.523,0-1.035-.434-1.899-1.3-2.594-.867-.694-1.949-1.042-3.244-1.042-1.109,0-1.865.093-2.266.279v-10.166Z" fill="#fff"/>
    </g>
  </g>
</svg>