<?xml version="1.0" encoding="UTF-8"?>
<svg id="Layer_1" data-name="Layer 1" xmlns="http://www.w3.org/2000/svg" width="358.493mm" height="100.581mm" viewBox="0 0 1016.202 285.111">
  <g>
    <path d="M168.899,16.585v31.136h-70.442v38.03h70.442v31.391h-70.442v73.507h-43.899V16.585h114.342Z" fill="#fff"/>
    <path d="M291.668,16.33l76.568,174.319h-44.919l-16.846-40.07h-74.78l-16.591,40.07h-44.919L245.982,16.33h45.686ZM243.176,122.503h51.81l-26.033-63.295-25.777,63.295Z" fill="#fff"/>
    <path d="M460.885,16.585c37.007,0,59.212,16.335,59.212,42.113,0,17.355-9.954,31.646-25.013,37.772,26.033,8.169,37.775,24.758,37.775,45.431,0,38.54-31.394,48.749-70.444,48.749h-75.547V16.585h74.017ZM430.768,88.814h18.632c18.631,0,28.84-6.381,28.84-22.97,0-15.315-8.421-22.205-27.053-22.205h-20.419v45.176ZM453.738,163.596c22.717,0,34.966-7.404,34.966-23.738,0-16.077-11.739-24.245-34.966-24.245h-22.97v47.984h22.97Z" fill="#fff"/>
    <path d="M575.739,16.585v161.812h85.501v12.252h-98.772V16.585h13.272Z" fill="#fff"/>
    <path d="M755.418,15.307l77.335,175.342h-14.037l-25.523-57.682h-84.481l-24.755,57.682h-14.04L745.978,15.307h9.441ZM714.073,120.973h73.759l-37.262-84.991-36.497,84.991Z" fill="#fff"/>
    <path d="M893.243,16.585c29.351,0,53.854,14.037,53.854,43.898,0,19.907-11.232,34.202-30.884,39.56,28.331,3.063,45.431,20.162,45.431,44.921,0,29.351-24.5,45.686-57.679,45.686h-50.537V16.585h39.815ZM866.7,96.215h20.93c30.626,0,45.428-13.017,45.428-34.199,0-22.97-14.547-33.437-43.388-33.437h-22.97v67.636ZM901.667,178.652c26.543,0,46.196-9.954,46.196-34.709,0-23.225-16.59-35.732-50.534-35.732h-30.629v70.441h34.967Z" fill="#fff"/>
  </g>
  <g>
    <path d="M62.061,216.893l14.397,35.99,14.472-35.99h7.121l14.55,35.99,14.242-35.99h7.427l-21.134,52.527h-1.608l-17.076-42.573-17.228,42.573h-1.608l-21.058-52.527h7.503Z" fill="#fff"/>
    <path d="M202.339,242.926c0,13.937-10.414,26.877-28.561,26.877-16.54,0-27.566-12.328-27.566-26.646,0-13.632,9.801-26.954,27.949-26.954,16.617,0,28.179,11.868,28.179,26.722ZM153.945,243.158c0,11.56,9.266,19.603,19.987,19.603,11.103,0,20.674-6.586,20.674-19.91,0-8.881-6.815-19.603-20.215-19.603-12.94,0-20.445,8.808-20.445,19.91Z" fill="#fff"/>
    <path d="M236.489,216.893c10.414,0,15.851,6.891,15.851,14.547,0,6.05-2.987,10.569-8.73,12.867,3.063,1.99,4.518,3.215,9.571,10.871l9.189,13.937h-8.882l-8.27-12.864c-5.283-8.268-8.576-9.878-12.252-9.878h-3.369v22.742h-7.503v-52.222h14.396ZM229.596,239.787h4.824c5.437,0,10.26-1.378,10.26-8.348,0-5.053-3.063-7.961-8.729-7.961h-6.356v16.308Z" fill="#fff"/>
    <path d="M286.26,216.893v23.891l21.975-23.891h9.343l-22.666,24.732,28.255,27.49h-10.261l-26.646-25.805v25.805h-7.581v-52.222h7.581Z" fill="#fff"/>
    <path d="M364.82,219.88v8.5c-3.523-3.447-7.581-5.437-12.252-5.437-4.748,0-7.659,2.45-7.659,6.047,0,2.91.613,5.437,8.576,10.033,11.026,6.354,13.401,10.03,13.401,17.152,0,7.656-6.05,13.629-15.161,13.629-5.131,0-9.955-1.762-14.089-4.824v-9.494c3.675,4.824,8.652,7.656,14.089,7.656,4.364,0,7.657-2.831,7.657-6.891,0-3.523-.997-5.897-11.333-11.944-7.733-4.52-10.644-8.655-10.644-15.086,0-7.427,6.432-13.017,15.391-13.017,4.288,0,8.424,1.301,12.023,3.675Z" fill="#fff"/>
    <path d="M394.067,216.893v22.589h29.328v-22.589h7.505v52.222h-7.505v-22.742h-29.328v22.742h-7.503v-52.222h7.503Z" fill="#fff"/>
    <path d="M506.778,242.926c0,13.937-10.414,26.877-28.56,26.877-16.54,0-27.568-12.328-27.568-26.646,0-13.632,9.803-26.954,27.949-26.954,16.616,0,28.179,11.868,28.179,26.722ZM458.384,243.158c0,11.56,9.265,19.603,19.987,19.603,11.103,0,20.675-6.586,20.675-19.91,0-8.881-6.818-19.603-20.215-19.603-12.94,0-20.447,8.808-20.447,19.91Z" fill="#fff"/>
    <path d="M542.457,216.893c10.645,0,17,5.589,17,14.778,0,10.261-6.967,14.778-18.225,14.778h-7.196v22.666h-7.506v-52.222h15.927ZM534.036,239.864h6.891c8.729,0,10.795-3.368,10.795-8.345,0-4.901-2.45-8.04-10.795-8.04h-6.891v16.384Z" fill="#fff"/>
  </g>
</svg>