<?xml version="1.0" encoding="UTF-8"?>
<svg id="Layer_1" data-name="Layer 1" xmlns="http://www.w3.org/2000/svg" width="370.487mm" height="370.344mm" viewBox="0 0 1050.198 1049.793">
  <g id="Logo">
    <g id="Inner">
      <path id="path5" d="M441.712,795.654v-83.09c2.982-1.141,5.891-2.502,8.685-4.15,39.615-23.355,43.78-89.707,9.294-148.19-34.482-58.485-94.55-86.96-134.164-63.604-39.615,23.357-43.778,89.705-9.299,148.19,5.564,9.434,11.798,18.073,18.499,25.852v61.727l-85.383-48.863v-306.036l-29.928-19.756c-27.263,49.672-42.768,106.714-42.768,167.375,0,188.479,149.554,341.925,336.526,348.118l.032-35.908-71.494-41.664Z" fill="#fff"/>
      <path id="path7" d="M342.546,309.357l52.186,30.928c-1.028,8.575-1.062,18.015-1.028,21.261.478,45.984,62.755,80.942,130.645,80.238,67.89-.703,116.243-41.833,115.901-82.296-.387-45.983-44.607-81.985-112.471-84.009-22.975-.686-45.122,3.902-55.207,5.829l-38.062-24.347,90.525-51.65,266.861,155.118,30.606-16.8c-29.443-48.412-71.142-90.308-123.713-120.576-163.341-94.042-370.944-40.995-469.598,117.95l30.356,19.169,83.001-50.814h0Z" fill="#fff"/>
      <path id="path9" d="M800.899,477.959l-56.749,29.663c-2.057-.344-14.654-12.134-17.488-13.717-40.175-22.381-99.319,7.211-132.361,66.521-33.043,59.307-30.226,127.118,9.946,149.505,40.176,22.38,99.997-4.472,133.044-63.779,5.329-9.568,12.446-31.779,15.774-41.491l48.346-27.949-.287,106.118-266.146,155.43.129,35.02c56.642-1.571,113.7-17.017,166.047-47.668,162.643-95.239,219.487-301.832,130.357-466.305l-30.612,16.81v101.842h0Z" fill="#fff"/>
    </g>
    <path id="GearRing" d="M1012.377,484.72c-10.294-.7-20.581-1.518-30.876-2.201-4.382-.29-6.194-2.643-6.693-6.864-1.172-9.925-2.054-19.937-4.09-29.697-3.594-17.232-7.777-34.351-12.137-51.409-1.058-4.141-.419-6.486,3.281-8.37,8.13-4.139,16.132-8.531,24.29-12.612,12.822-6.415,10.413-6.636,6.613-16.099-6.958-17.327-14.514-34.413-21.768-51.621-1.505-3.57-3.633-4.311-7.454-3.22-10.601,3.028-21.33,5.619-32.034,8.277-6.309,1.567-6.359,1.492-9.595-4.388-13.23-24.041-28.529-46.685-45.993-67.845-2.406-2.916-2.675-5.128-.163-8.192,7.107-8.669,13.854-17.633,20.905-26.348,2.601-3.214,2.98-5.996-.09-9.027-14.671-14.489-29.335-28.987-43.95-43.533-2.502-2.49-4.723-2.41-7.461-.325-9.277,7.066-18.739,13.89-27.962,21.023-3.06,2.367-5.31,2.238-8.288-.151-6.997-5.614-13.955-11.368-21.47-16.226-16.054-10.379-32.424-20.272-48.735-30.248-2.706-1.655-3.595-3.285-2.716-6.56,3.018-11.242,5.477-22.635,8.546-33.862,1.183-4.327-.292-6.489-4.015-8.003-17.574-7.149-35.1-14.419-52.723-21.447-5.817-2.32-6.517-1.983-9.686,3.483-5.475,9.442-10.867,18.939-16.014,28.562-2.078,3.885-4.724,4.345-8.51,3.123-26.838-8.658-54.437-13.501-82.453-16.098-4.212-.39-6.037-2.22-6.508-6.348-1.151-10.095-2.658-20.15-3.88-30.237-.901-7.44-1.768-9.005-9.386-9.113-18.537-.261-37.085-.05-55.623.253-6.653.109-7.485,1.271-8.088,8.061-.926,10.433-1.874,20.867-2.621,31.313-.27,3.775-1.806,5.599-5.681,6.043-9.041,1.036-18.134,1.948-27.044,3.725-17.686,3.528-35.293,7.472-52.869,11.523-6.908,1.593-6.958,1.884-10.813-4.173-6.023-9.462-12.126-18.876-18.021-28.417-1.625-2.631-3.461-3.588-6.297-2.416-18.915,7.814-37.817,15.659-56.744,23.446-2.719,1.119-3.44,2.903-2.831,5.699,2.542,11.671,4.698,23.436,7.593,35.017,1.069,4.276-.028,6.229-3.622,8.161-24.035,12.927-46.502,28.229-67.789,45.283-6.464,5.178-6.482,5.223-12.89-.106-7.815-6.501-15.621-13.014-23.342-19.626-3.083-2.64-5.754-2.574-8.612.292-13.933,13.974-27.876,27.938-41.9,41.821-3.379,3.345-3.043,6.162-.105,9.67,6.908,8.248,13.51,16.752,20.258,25.135,2.101,2.61,3.484,4.951.751,8.277-17.417,21.194-32.742,43.826-46.114,67.787-3.156,5.655-4.184,6.002-10.467,4.497-10.432-2.5-20.917-4.82-31.245-7.701-4.33-1.208-6.537.153-8.089,3.86-7.444,17.777-14.914,35.543-22.33,53.332-2.935,7.041-2.086,7.247,4.464,11.107,8.891,5.24,17.8,10.45,26.672,15.723,2.961,1.76,5.356,3.755,4.035,7.917-8.478,26.718-14.048,54.034-16.491,81.968-.25,2.856-1.551,4.361-4.42,4.632-11.615,1.097-23.214,2.382-34.844,3.274-3.828.294-5.801,1.512-5.891,5.544-.39,17.338-.939,34.672-1.303,52.011-.084,4.028.254,8.072.543,12.098.305,4.242,2.438,6.191,6.957,6.347,10.895.377,21.77,1.301,32.662,1.823,3.878.186,5.623,2.063,6.117,5.731,1.989,14.776,3.516,29.641,6.245,44.281,2.514,13.485,6.064,26.805,9.771,40.025,1.164,4.151.278,5.941-3.176,7.797-9.616,5.169-19.088,10.603-28.639,15.894-5.157,2.856-5.924,4.591-3.95,10.057,2.437,6.748,4.76,13.55,7.526,20.164,4.786,11.445,9.825,22.785,14.869,34.12,1.376,3.092,3.015,5.764,7.457,4.492,11.054-3.164,22.216-5.948,33.296-9.023,3.74-1.038,6.184-.2,8.095,3.375,13.214,24.733,28.661,48.003,46.427,69.7,2.748,3.356,2.516,5.765-.31,8.9-7.309,8.108-14.317,16.487-21.495,24.715-2.584,2.962-2.853,5.825-.002,8.709,14.498,14.671,29.007,29.331,43.513,43.994,3.044,3.077,6.082,3.144,9.492.375,8.236-6.69,16.62-13.197,24.893-19.842,5.088-4.086,5.232-3.949,10.689.041,14.594,10.671,29.142,21.42,44.058,31.627,8.001,5.475,16.695,9.944,25.129,14.776,3.187,1.826,5.084,4.085,4.019,8.001-2.862,10.519-5.59,21.075-8.553,31.564-1.529,5.411-1.047,7.398,4.159,9.598,18.022,7.617,36.098,15.109,54.211,22.505,4.742,1.936,6.635,1.05,9.091-3.536,4.161-7.774,8.287-15.568,12.34-23.399,6.306-12.185,3.363-11.02,17.441-7.006,18.977,5.411,38.091,10.055,57.773,12.115,6.805.712,13.548,1.993,20.343,2.814,3.854.466,5.406,2.518,5.553,6.231.402,10.167.994,20.326,1.37,30.494.257,6.945.986,8.088,8.042,8.47,8.662.47,17.35.71,26.024.657,12.111-.074,24.231-.286,36.325-.89,6.164-.308,6.988-1.671,7.541-7.786.929-10.282,2.043-20.55,2.777-30.846.313-4.388,2.398-6.553,6.525-7.088,5.757-.746,11.535-1.347,17.279-2.178,9.435-1.365,18.974-2.327,28.245-4.44,12.381-2.822,24.561-6.537,36.804-9.956,6.022-1.682,6.716-1.592,9.783,3.741,5.291,9.201,10.534,18.432,15.62,27.746,2.149,3.935,4.505,6.225,9.19,3.655,1.804-.99,3.975-1.285,5.89-2.104,16.213-6.938,32.41-13.916,48.602-20.902,3.94-1.7,5.153-4.415,3.771-8.683-1.841-5.681-3.21-11.516-4.751-17.293-1.498-5.616-2.956-11.243-4.431-16.865-.384-3.885,2.486-5.338,5.087-6.762,24.48-13.399,47.291-29.242,68.769-47.019,2.937-2.431,5.211-2.665,8.16-.009,7.775,7,15.74,13.79,23.653,20.637,5.342,4.622,6.501,4.831,11.637-.266,13.901-13.796,27.658-27.739,41.292-41.799,4.818-4.969,4.631-5.88.1-11.315-6.896-8.272-13.792-16.545-20.848-24.68-2.304-2.656-2.287-4.769-.115-7.455,4.321-5.345,8.449-10.849,12.592-16.335,13.465-17.83,24.812-36.997,35.511-56.564,1.656-3.029,3.651-3.826,6.96-2.628,9.842,3.563,19.772,6.884,29.657,10.329,6.426,2.24,8.309,1.754,10.891-4.457,7.397-17.795,14.41-35.749,21.824-53.536,1.893-4.541.256-6.89-3.432-9.112-9.222-5.556-18.33-11.3-27.499-16.945-5.645-3.475-5.385-4.164-3.917-10.526,4.362-18.898,8.388-37.878,12.209-56.894,1.524-7.587,2.188-15.348,3.203-23.035.398-3.013,2.081-4.282,5.069-4.607,10.235-1.114,20.435-2.557,30.678-3.586,7.655-.769,9.396-2.012,9.434-9.477.097-19.157.05-38.317-.186-57.473-.087-7.083-1.534-8.162-8.552-8.639ZM903.924,574.252c-.981,21.7-6.205,42.981-12.762,63.861-8.334,26.537-19.52,51.815-34.112,75.334-10.12,16.311-21.726,31.852-34,46.63-11.717,14.107-24.453,27.563-38.042,39.867-13.677,12.384-28.646,23.424-43.605,34.287-24.192,17.569-50.657,31.291-78.562,41.763-18.24,6.845-37.211,11.839-56.035,17.006-24.199,6.642-48.988,9.1-74.066,8.877-5.727-.051-6.442.801-6.45,6.574-.036,25.746-.016,51.492-.027,77.238-.004,8.02-.195,8.199-8.393,8.216-4.938.01-9.877-.078-14.814.001-3.727.06-5.206-1.639-5.6-5.356-1.193-11.258-2.735-22.479-4.114-33.718-.479-3.91-3.358-5.007-6.566-5.669-23.644-4.886-47.291-9.758-70.942-14.61-6.715-1.378-13.443-2.696-20.172-4.006-3.488-.679-5.977.395-7.711,3.764-4.647,9.031-9.526,17.942-14.316,26.899-2.567,4.799-3.574,5.198-8.493,3.26-13.478-5.31-26.957-10.621-40.421-15.967-5.301-2.104-5.701-3.069-4.064-8.43,3.182-10.421,6.28-20.868,9.515-31.272,1.042-3.35-.822-5.034-3.219-6.565-12.967-8.279-25.966-16.508-38.897-24.843-12.814-8.259-25.627-16.524-38.292-25.009-3.236-2.168-5.445-2.279-8.704.195-8.559,6.499-17.53,12.454-26.273,18.715-2.218,1.589-4.049,1.509-5.971-.362-11.041-10.746-22.17-21.405-33.028-32.333-.899-.905-.729-4.113.172-5.368,6.455-8.978,13.106-17.823,19.965-26.496,2.426-3.067,2.7-5.495.539-8.817-14.917-22.929-29.699-45.944-44.502-68.947-2.262-3.515-4.424-7.095-6.593-10.669-1.771-2.918-4.289-4.179-7.601-3.249-10.191,2.861-20.387,5.713-30.521,8.771-5.242,1.582-6.316,1.186-8.433-4.012-5.127-12.589-10.187-25.209-15.562-37.693-1.555-3.611-.566-5.509,2.475-7.34,7.681-4.625,15.246-9.442,22.905-14.105,6.497-3.956,7.266-6.25,5.619-13.728-2.246-10.2-4.098-20.487-6.114-30.738-2.352-11.96-4.702-23.921-7.049-35.882-1.436-7.319-3.033-14.612-4.235-21.969-.757-4.634-3.279-6.226-7.708-6.191-9.127.071-18.255-.086-27.383-.17-5.875-.054-6.688-.801-6.712-6.819-.059-14.519-.056-29.039-.011-43.559.018-5.864.576-6.581,6.209-7.006,9.83-.741,19.675-1.277,29.516-1.867,6.693-.402,7.291-1.318,8.247-7.962,1.42-9.865,3.373-19.652,5.05-29.481.75-4.398,1.341-8.823,2.07-13.225,2.705-16.326,5.389-32.655,8.203-48.962.583-3.378-.744-5.33-3.519-6.937-9.695-5.617-19.263-11.454-29.02-16.959-2.891-1.631-3.247-3.253-2.051-6.142,5.712-13.798,11.282-27.655,16.866-41.506,1.237-3.069,2.756-4.358,6.485-3.153,11.507,3.72,23.197,6.871,34.743,10.476,3.175.991,5.049.236,6.734-2.466,11.47-18.386,23.02-36.723,34.524-55.088,5.079-8.108,9.984-16.328,15.222-24.331,2.306-3.523,2.346-6.53-.169-9.833-5.522-7.253-10.839-14.665-16.454-21.843-4.321-5.524-4.351-5.297.69-10.477,9.284-9.538,18.455-19.185,27.592-28.864,3.818-4.044,4.265-4.079,8.876-.769,8.736,6.271,17.613,12.345,26.34,18.629,2.851,2.053,5.259,1.996,8.161.034,22.401-15.144,44.87-30.187,67.319-45.259,2.731-1.833,5.307-3.993,8.242-5.404,4.689-2.256,5.052-5.79,3.84-10.09-2.554-9.056-4.985-18.15-7.725-27.15-2.216-7.278-2.097-8.403,4.794-11.394,12.744-5.532,25.662-10.66,38.413-16.176,3.622-1.567,5.631-.41,7.289,2.674,4.812,8.954,9.808,17.813,14.422,26.868,1.954,3.835,4.177,4.899,8.547,4.098,14.082-2.582,28.279-4.53,42.407-6.867,13.514-2.235,26.998-4.652,40.495-6.985,3.517-.608,7.178-.799,10.498-1.964,1.77-.621,3.155-2.776,4.328-4.502.703-1.034.818-2.562.927-3.891.784-9.515,1.587-19.03,2.201-28.556.35-5.427,1.012-6.334,6.294-6.417,4.937-.078,9.877-.068,14.814-.01,5.64.066,6.357.794,6.375,6.659.039,13.023.012,26.046.012,39.068h.019c0,13.023-.038,26.046.017,39.068.025,6.084.972,6.513,7.111,7.118,15.419,1.521,30.92,2.728,46.164,5.356,18.374,3.167,36.741,6.866,54.698,11.829,17.213,4.757,34.055,11.015,50.777,17.357,21.739,8.245,42.05,19.453,61.336,32.389,24.407,16.37,47.047,34.822,66.377,57.18,15.104,17.471,28.618,36.017,40.349,55.902,11.967,20.285,22.119,41.53,29.423,63.813,7.005,21.371,12.497,43.319,17.275,65.313,3.304,15.209,4.145,30.944,6.3,46.414,3.425,24.594,2.341,49.348,1.23,73.924Z" fill="#fff"/>
  </g>
</svg>