<?xml version="1.0" encoding="UTF-8"?>
<svg id="Layer_1" data-name="Layer 1" xmlns="http://www.w3.org/2000/svg" width="308.021mm" height="308.021mm" viewBox="0 0 873.13 873.13">
  <g id="Logo">
    <g id="Inner">
      <path id="path5" d="m365.09,668.643v-71.22c2.556-.978,5.05-2.144,7.444-3.558,33.956-20.018,37.525-76.891,7.966-127.02-29.556-50.13-81.043-74.538-114.998-54.518-33.956,20.021-37.524,76.89-7.97,127.02,4.769,8.086,10.112,15.491,15.857,22.159v52.909l-73.185-41.883v-262.317l-25.652-16.934c-23.368,42.576-36.658,91.469-36.658,143.464,0,161.553,128.189,293.079,288.451,298.387l.027-30.778-61.28-35.712Z" fill="#0fbbee" stroke-width="0"/>
      <path id="path7" d="m280.091,251.817l44.731,26.51c-.881,7.35-.91,15.442-.881,18.224.41,39.415,53.79,69.379,111.981,68.776,58.191-.603,99.637-35.856,99.343-70.54-.332-39.414-38.234-70.273-96.404-72.008-19.693-.588-38.676,3.345-47.32,4.996l-32.624-20.869,77.593-44.271,228.738,132.958,26.233-14.4c-25.237-41.496-60.979-77.407-106.04-103.351-140.007-80.607-317.952-35.139-402.513,101.1l26.019,16.43,71.144-43.555h0Z" fill="#0fbbee" stroke-width="0"/>
      <path id="path9" d="m672.965,396.333l-48.642,25.425c-1.763-.295-12.56-10.401-14.989-11.757-34.435-19.184-85.131,6.181-113.452,57.018-28.323,50.835-25.908,108.959,8.525,128.147,34.436,19.183,85.712-3.833,114.038-54.668,4.568-8.201,10.668-27.239,13.52-35.564l41.439-23.956-.246,90.958-228.125,133.226.11,30.017c48.55-1.347,97.457-14.586,142.326-40.858,139.408-81.633,188.132-258.713,111.734-399.69l-26.239,14.408v87.293h0Z" fill="#0fbbee" stroke-width="0"/>
    </g>
    <path id="GearRing" d="m854.232,402.128c-8.824-.6-17.641-1.301-26.465-1.887-3.756-.249-5.309-2.266-5.737-5.883-1.004-8.507-1.761-17.088-3.506-25.454-3.081-14.771-6.666-29.444-10.403-44.065-.907-3.55-.359-5.559,2.812-7.174,6.969-3.548,13.828-7.312,20.82-10.811,10.99-5.498,8.925-5.688,5.668-13.799-5.964-14.852-12.441-29.497-18.659-44.247-1.29-3.06-3.114-3.695-6.389-2.76-9.087,2.595-18.282,4.816-27.457,7.094-5.408,1.343-5.45,1.279-8.224-3.761-11.34-20.607-24.453-40.016-39.423-58.153-2.063-2.499-2.293-4.395-.14-7.021,6.091-7.431,11.875-15.114,17.919-22.584,2.229-2.755,2.554-5.139-.077-7.737-12.576-12.419-25.144-24.846-37.671-37.314-2.144-2.134-4.048-2.066-6.395-.278-7.952,6.056-16.062,11.906-23.968,18.02-2.623,2.028-4.552,1.919-7.104-.129-5.998-4.812-11.961-9.744-18.403-13.908-13.761-8.897-27.792-17.376-41.773-25.927-2.32-1.419-3.081-2.816-2.328-5.623,2.586-9.636,4.695-19.401,7.325-29.025,1.014-3.709-.251-5.562-3.441-6.86-15.063-6.128-30.086-12.359-45.191-18.383-4.986-1.989-5.586-1.7-8.303,2.986-4.692,8.094-9.314,16.233-13.726,24.482-1.781,3.33-4.049,3.724-7.294,2.677-23.004-7.421-46.66-11.573-70.674-13.798-3.61-.335-5.175-1.902-5.578-5.441-.987-8.653-2.278-17.271-3.325-25.918-.772-6.377-1.515-7.719-8.045-7.811-15.889-.224-31.787-.043-47.677.217-5.703.094-6.416,1.09-6.933,6.909-.794,8.943-1.606,17.886-2.246,26.84-.231,3.236-1.548,4.799-4.87,5.18-7.749.888-15.544,1.669-23.18,3.193-15.159,3.024-30.251,6.404-45.316,9.877-5.921,1.365-5.964,1.615-9.269-3.576-5.163-8.111-10.394-16.179-15.446-24.358-1.393-2.255-2.967-3.075-5.397-2.071-16.213,6.698-32.415,13.422-48.637,20.097-2.331.959-2.949,2.488-2.427,4.885,2.179,10.004,4.027,20.088,6.509,30.014.916,3.665-.024,5.339-3.104,6.995-20.601,11.08-39.859,24.196-58.105,38.814-5.54,4.439-5.556,4.477-11.048-.091-6.699-5.572-13.389-11.155-20.007-16.822-2.642-2.263-4.932-2.206-7.381.25-11.943,11.978-23.894,23.947-35.914,35.846-2.896,2.867-2.608,5.282-.09,8.288,5.921,7.07,11.58,14.359,17.364,21.544,1.801,2.237,2.986,4.244.644,7.094-14.929,18.167-28.065,37.565-39.527,58.103-2.705,4.847-3.587,5.145-8.972,3.854-8.942-2.143-17.929-4.132-26.781-6.601-3.711-1.035-5.603.131-6.934,3.308-6.38,15.238-12.783,30.466-19.14,45.713-2.516,6.035-1.788,6.212,3.826,9.52,7.621,4.491,15.257,8.957,22.861,13.476,2.538,1.508,4.591,3.219,3.459,6.786-7.267,22.901-12.041,46.315-14.136,70.259-.214,2.448-1.329,3.738-3.788,3.97-9.955.941-19.898,2.042-29.866,2.807-3.281.252-4.972,1.296-5.05,4.752-.334,14.861-.805,29.719-1.117,44.581-.072,3.452.217,6.919.465,10.37.261,3.636,2.089,5.306,5.963,5.44,9.339.323,18.66,1.115,27.996,1.563,3.324.159,4.819,1.769,5.243,4.912,1.705,12.665,3.014,25.407,5.353,37.956,2.155,11.559,5.198,22.975,8.375,34.307.998,3.558.239,5.092-2.722,6.683-8.242,4.43-16.361,9.089-24.548,13.623-4.42,2.448-5.078,3.935-3.386,8.62,2.089,5.784,4.08,11.615,6.451,17.284,4.102,9.81,8.421,19.53,12.745,29.245,1.179,2.65,2.584,4.941,6.392,3.85,9.475-2.712,19.042-5.099,28.54-7.734,3.206-.89,5.301-.171,6.938,2.893,11.327,21.2,24.567,41.146,39.794,59.743,2.355,2.876,2.157,4.941-.266,7.629-6.265,6.95-12.272,14.132-18.424,21.184-2.215,2.539-2.445,4.993-.002,7.465,12.427,12.575,24.863,25.141,37.297,37.709,2.609,2.637,5.213,2.695,8.136.321,7.06-5.734,14.246-11.312,21.337-17.007,4.361-3.503,4.485-3.385,9.162.035,12.509,9.147,24.979,18.36,37.764,27.109,6.858,4.693,14.31,8.523,21.539,12.665,2.732,1.565,4.358,3.501,3.445,6.858-2.453,9.016-4.792,18.064-7.332,27.055-1.31,4.638-.897,6.341,3.565,8.227,15.447,6.529,30.941,12.95,46.467,19.29,4.065,1.66,5.687.9,7.792-3.031,3.567-6.663,7.103-13.344,10.578-20.056,5.405-10.444,2.883-9.446,14.949-6.005,16.266,4.638,32.65,8.618,49.52,10.385,5.832.611,11.612,1.708,17.437,2.412,3.304.399,4.634,2.159,4.76,5.341.345,8.714.852,17.422,1.175,26.137.22,5.953.845,6.932,6.893,7.26,7.425.403,14.871.609,22.306.563,10.381-.064,20.77-.245,31.136-.763,5.283-.264,5.99-1.432,6.463-6.673.796-8.813,1.752-17.615,2.38-26.439.268-3.761,2.055-5.617,5.593-6.075,4.935-.64,9.887-1.154,14.811-1.867,8.087-1.17,16.263-1.995,24.21-3.806,10.613-2.419,21.053-5.603,31.546-8.533,5.161-1.441,5.757-1.364,8.385,3.207,4.535,7.886,9.029,15.798,13.388,23.783,1.842,3.373,3.861,5.336,7.877,3.133,1.547-.849,3.408-1.101,5.049-1.804,13.897-5.947,27.78-11.928,41.659-17.916,3.377-1.457,4.417-3.784,3.232-7.442-1.578-4.869-2.752-9.871-4.072-14.823-1.284-4.814-2.533-9.637-3.798-14.456-.329-3.33,2.131-4.575,4.361-5.796,20.983-11.485,40.535-25.064,58.945-40.302,2.518-2.084,4.466-2.284,6.995-.008,6.665,6,13.492,11.82,20.274,17.689,4.579,3.962,5.572,4.141,9.975-.228,11.915-11.825,23.707-23.776,35.393-35.828,4.13-4.259,3.97-5.04.086-9.699-5.911-7.09-11.822-14.182-17.87-21.154-1.975-2.277-1.96-4.088-.099-6.39,3.704-4.581,7.242-9.299,10.793-14.002,11.542-15.283,21.267-31.712,30.438-48.483,1.42-2.596,3.129-3.28,5.966-2.253,8.436,3.054,16.948,5.9,25.42,8.854,5.508,1.92,7.122,1.503,9.335-3.82,6.34-15.252,12.351-30.642,18.706-45.888,1.622-3.892.22-5.906-2.942-7.81-7.905-4.762-15.711-9.686-23.571-14.524-4.838-2.978-4.616-3.569-3.357-9.022,3.739-16.198,7.19-32.467,10.465-48.767,1.307-6.503,1.876-13.155,2.745-19.744.341-2.583,1.784-3.67,4.345-3.949,8.773-.955,17.516-2.192,26.295-3.073,6.562-.659,8.054-1.724,8.086-8.123.083-16.421.043-32.843-.159-49.263-.074-6.071-1.315-6.996-7.33-7.405Zm-92.96,76.742c-.841,18.6-5.318,36.841-10.939,54.738-7.143,22.746-16.731,44.412-29.238,64.572-8.674,13.981-18.622,27.302-29.143,39.969-10.043,12.092-20.96,23.625-32.607,34.171-11.723,10.615-24.554,20.077-37.376,29.389-20.736,15.059-43.42,26.821-67.339,35.797-15.634,5.867-31.895,10.148-48.03,14.576-20.742,5.693-41.99,7.8-63.485,7.609-4.909-.044-5.522.686-5.529,5.635-.031,22.068-.014,44.136-.023,66.204-.003,6.874-.167,7.028-7.194,7.042-4.233.009-8.466-.067-12.698.001-3.194.051-4.463-1.405-4.8-4.591-1.023-9.65-2.345-19.268-3.526-28.901-.411-3.351-2.878-4.291-5.628-4.86-20.266-4.188-40.535-8.364-60.808-12.523-5.756-1.181-11.523-2.311-17.29-3.434-2.99-.582-5.123.338-6.609,3.226-3.983,7.741-8.165,15.379-12.271,23.057-2.2,4.114-3.063,4.456-7.28,2.794-11.553-4.552-23.106-9.104-34.647-13.686-4.543-1.804-4.887-2.631-3.484-7.226,2.728-8.932,5.382-17.887,8.155-26.805.893-2.871-.704-4.315-2.759-5.627-11.115-7.096-22.256-14.15-33.34-21.294-10.983-7.079-21.966-14.164-32.821-21.436-2.774-1.858-4.667-1.953-7.46.167-7.336,5.571-15.025,10.675-22.519,16.041-1.902,1.362-3.471,1.294-5.118-.31-9.464-9.211-19.003-18.347-28.31-27.714-.77-.776-.625-3.526.148-4.601,5.532-7.695,11.234-15.277,17.113-22.711,2.079-2.629,2.314-4.71.462-7.557-12.786-19.653-25.457-39.381-38.145-59.098-1.939-3.013-3.792-6.082-5.652-9.145-1.518-2.501-3.676-3.582-6.515-2.785-8.735,2.452-17.475,4.897-26.161,7.518-4.493,1.356-5.414,1.017-7.228-3.439-4.395-10.791-8.731-21.608-13.339-32.308-1.333-3.095-.485-4.722,2.121-6.291,6.584-3.964,13.068-8.093,19.633-12.09,5.569-3.391,6.228-5.357,4.817-11.767-1.925-8.743-3.513-17.56-5.241-26.347-2.016-10.251-4.03-20.503-6.042-30.756-1.231-6.273-2.6-12.524-3.63-18.831-.649-3.972-2.811-5.336-6.607-5.307-7.823.061-15.647-.074-23.471-.146-5.035-.046-5.732-.687-5.753-5.845-.051-12.445-.048-24.891-.009-37.336.016-5.026.494-5.641,5.322-6.005,8.426-.635,16.865-1.095,25.3-1.601,5.737-.344,6.249-1.13,7.069-6.825,1.217-8.456,2.891-16.845,4.328-25.27.643-3.77,1.149-7.563,1.775-11.336,2.319-13.993,4.619-27.99,7.031-41.968.5-2.895-.638-4.568-3.016-5.946-8.31-4.814-16.511-9.818-24.874-14.537-2.478-1.398-2.783-2.788-1.758-5.265,4.896-11.827,9.67-23.705,14.457-35.576,1.061-2.63,2.362-3.735,5.558-2.702,9.863,3.189,19.883,5.889,29.78,8.979,2.721.85,4.328.202,5.772-2.113,9.831-15.76,19.731-31.477,29.592-47.218,4.353-6.95,8.557-13.996,13.048-20.855,1.977-3.02,2.011-5.597-.145-8.429-4.733-6.217-9.291-12.57-14.104-18.723-3.704-4.735-3.73-4.541.591-8.98,7.957-8.175,15.819-16.444,23.651-24.74,3.272-3.466,3.656-3.496,7.608-.659,7.488,5.375,15.097,10.582,22.577,15.968,2.444,1.76,4.508,1.711,6.996.029,19.2-12.981,38.46-25.875,57.702-38.794,2.341-1.571,4.549-3.422,7.064-4.632,4.019-1.934,4.331-4.963,3.292-8.648-2.189-7.763-4.273-15.557-6.621-23.272-1.899-6.238-1.797-7.202,4.109-9.766,10.923-4.742,21.996-9.137,32.926-13.865,3.105-1.343,4.826-.352,6.247,2.292,4.125,7.675,8.407,15.268,12.361,23.029,1.675,3.287,3.581,4.199,7.326,3.513,12.07-2.213,24.239-3.883,36.349-5.886,11.583-1.916,23.141-3.988,34.71-5.987,3.015-.521,6.152-.685,8.998-1.683,1.517-.532,2.704-2.38,3.709-3.859.602-.887.701-2.196.795-3.335.672-8.156,1.36-16.311,1.887-24.477.3-4.651.867-5.429,5.395-5.5,4.232-.067,8.466-.058,12.698-.009,4.834.057,5.449.681,5.464,5.707.034,11.162.01,22.325.01,33.487h.016c0,11.162-.032,22.325.014,33.487.022,5.214.833,5.582,6.095,6.101,13.216,1.303,26.503,2.339,39.57,4.591,15.749,2.715,31.492,5.885,46.884,10.139,14.754,4.077,29.19,9.441,43.524,14.877,18.634,7.067,36.043,16.674,52.574,27.762,20.92,14.032,40.326,29.847,56.895,49.012,12.947,14.975,24.53,30.872,34.585,47.916,10.257,17.388,18.959,35.597,25.22,54.697,6.004,18.318,10.712,37.131,14.807,55.983,2.832,13.036,3.553,26.523,5.4,39.783,2.936,21.081,2.007,42.298,1.054,63.363Z" fill="#006db1" stroke-width="0"/>
  </g>
</svg>